<mxfile host="app.diagrams.net" agent="Mozilla/5.0 (X11; Linux x86_64) AppleWebKit/537.36 (KHTML, like Gecko) Chrome/129.0.0.0 Safari/537.36" version="24.7.17">
  <diagram name="Page-1" id="9f46799a-70d6-7492-0946-bef42562c5a5">
    <mxGraphModel dx="1574" dy="1028" grid="1" gridSize="10" guides="1" tooltips="1" connect="1" arrows="1" fold="1" page="1" pageScale="1" pageWidth="1100" pageHeight="850" background="none" math="0" shadow="0">
      <root>
        <mxCell id="0" />
        <mxCell id="1" parent="0" />
        <mxCell id="uqK8QcpsEyStqq74XiFP-1" value="User" style="swimlane;fontStyle=1;align=center;verticalAlign=top;childLayout=stackLayout;horizontal=1;startSize=25.56410334660457;horizontalStack=0;resizeParent=1;resizeParentMax=0;resizeLast=0;collapsible=0;marginBottom=0;fontFamily=Ubuntu Mono;fontSource=https%3A%2F%2Ffonts.googleapis.com%2Fcss%3Ffamily%3DUbuntu%2BMono;fontSize=16;" vertex="1" parent="1">
          <mxGeometry x="130" y="99" width="278" height="345.56410334660455" as="geometry" />
        </mxCell>
        <mxCell id="uqK8QcpsEyStqq74XiFP-2" value="-String username" style="text;strokeColor=none;fillColor=none;align=left;verticalAlign=top;spacingLeft=4;spacingRight=4;overflow=hidden;rotatable=0;points=[[0,0.5],[1,0.5]];portConstraint=eastwest;fontFamily=Ubuntu Mono;fontSource=https%3A%2F%2Ffonts.googleapis.com%2Fcss%3Ffamily%3DUbuntu%2BMono;fontSize=16;" vertex="1" parent="uqK8QcpsEyStqq74XiFP-1">
          <mxGeometry y="25.56410334660457" width="278" height="26" as="geometry" />
        </mxCell>
        <mxCell id="uqK8QcpsEyStqq74XiFP-3" value="-String password" style="text;strokeColor=none;fillColor=none;align=left;verticalAlign=top;spacingLeft=4;spacingRight=4;overflow=hidden;rotatable=0;points=[[0,0.5],[1,0.5]];portConstraint=eastwest;fontFamily=Ubuntu Mono;fontSource=https%3A%2F%2Ffonts.googleapis.com%2Fcss%3Ffamily%3DUbuntu%2BMono;fontSize=16;" vertex="1" parent="uqK8QcpsEyStqq74XiFP-1">
          <mxGeometry y="51.56410334660457" width="278" height="26" as="geometry" />
        </mxCell>
        <mxCell id="uqK8QcpsEyStqq74XiFP-4" value="-String firstName" style="text;strokeColor=none;fillColor=none;align=left;verticalAlign=top;spacingLeft=4;spacingRight=4;overflow=hidden;rotatable=0;points=[[0,0.5],[1,0.5]];portConstraint=eastwest;fontFamily=Ubuntu Mono;fontSource=https%3A%2F%2Ffonts.googleapis.com%2Fcss%3Ffamily%3DUbuntu%2BMono;fontSize=16;" vertex="1" parent="uqK8QcpsEyStqq74XiFP-1">
          <mxGeometry y="77.56410334660457" width="278" height="26" as="geometry" />
        </mxCell>
        <mxCell id="uqK8QcpsEyStqq74XiFP-5" value="-String lastName" style="text;strokeColor=none;fillColor=none;align=left;verticalAlign=top;spacingLeft=4;spacingRight=4;overflow=hidden;rotatable=0;points=[[0,0.5],[1,0.5]];portConstraint=eastwest;fontFamily=Ubuntu Mono;fontSource=https%3A%2F%2Ffonts.googleapis.com%2Fcss%3Ffamily%3DUbuntu%2BMono;fontSize=16;" vertex="1" parent="uqK8QcpsEyStqq74XiFP-1">
          <mxGeometry y="103.56410334660457" width="278" height="26" as="geometry" />
        </mxCell>
        <mxCell id="uqK8QcpsEyStqq74XiFP-6" value="-String email" style="text;strokeColor=none;fillColor=none;align=left;verticalAlign=top;spacingLeft=4;spacingRight=4;overflow=hidden;rotatable=0;points=[[0,0.5],[1,0.5]];portConstraint=eastwest;fontFamily=Ubuntu Mono;fontSource=https%3A%2F%2Ffonts.googleapis.com%2Fcss%3Ffamily%3DUbuntu%2BMono;fontSize=16;" vertex="1" parent="uqK8QcpsEyStqq74XiFP-1">
          <mxGeometry y="129.56410334660455" width="278" height="26" as="geometry" />
        </mxCell>
        <mxCell id="uqK8QcpsEyStqq74XiFP-7" style="line;strokeWidth=1;fillColor=none;align=left;verticalAlign=middle;spacingTop=-1;spacingLeft=3;spacingRight=3;rotatable=0;labelPosition=right;points=[];portConstraint=eastwest;strokeColor=inherit;fontFamily=Ubuntu Mono;fontSource=https%3A%2F%2Ffonts.googleapis.com%2Fcss%3Ffamily%3DUbuntu%2BMono;fontSize=16;" vertex="1" parent="uqK8QcpsEyStqq74XiFP-1">
          <mxGeometry y="155.56410334660455" width="278" height="8" as="geometry" />
        </mxCell>
        <mxCell id="uqK8QcpsEyStqq74XiFP-8" value="+void login()" style="text;strokeColor=none;fillColor=none;align=left;verticalAlign=top;spacingLeft=4;spacingRight=4;overflow=hidden;rotatable=0;points=[[0,0.5],[1,0.5]];portConstraint=eastwest;fontFamily=Ubuntu Mono;fontSource=https%3A%2F%2Ffonts.googleapis.com%2Fcss%3Ffamily%3DUbuntu%2BMono;fontSize=16;" vertex="1" parent="uqK8QcpsEyStqq74XiFP-1">
          <mxGeometry y="163.56410334660455" width="278" height="26" as="geometry" />
        </mxCell>
        <mxCell id="uqK8QcpsEyStqq74XiFP-9" value="+void logout()" style="text;strokeColor=none;fillColor=none;align=left;verticalAlign=top;spacingLeft=4;spacingRight=4;overflow=hidden;rotatable=0;points=[[0,0.5],[1,0.5]];portConstraint=eastwest;fontFamily=Ubuntu Mono;fontSource=https%3A%2F%2Ffonts.googleapis.com%2Fcss%3Ffamily%3DUbuntu%2BMono;fontSize=16;" vertex="1" parent="uqK8QcpsEyStqq74XiFP-1">
          <mxGeometry y="189.56410334660455" width="278" height="26" as="geometry" />
        </mxCell>
        <mxCell id="uqK8QcpsEyStqq74XiFP-10" value="+void updateProfile()" style="text;strokeColor=none;fillColor=none;align=left;verticalAlign=top;spacingLeft=4;spacingRight=4;overflow=hidden;rotatable=0;points=[[0,0.5],[1,0.5]];portConstraint=eastwest;fontFamily=Ubuntu Mono;fontSource=https%3A%2F%2Ffonts.googleapis.com%2Fcss%3Ffamily%3DUbuntu%2BMono;fontSize=16;" vertex="1" parent="uqK8QcpsEyStqq74XiFP-1">
          <mxGeometry y="215.56410334660455" width="278" height="26" as="geometry" />
        </mxCell>
        <mxCell id="uqK8QcpsEyStqq74XiFP-11" value="+String getUsername()" style="text;strokeColor=none;fillColor=none;align=left;verticalAlign=top;spacingLeft=4;spacingRight=4;overflow=hidden;rotatable=0;points=[[0,0.5],[1,0.5]];portConstraint=eastwest;fontFamily=Ubuntu Mono;fontSource=https%3A%2F%2Ffonts.googleapis.com%2Fcss%3Ffamily%3DUbuntu%2BMono;fontSize=16;" vertex="1" parent="uqK8QcpsEyStqq74XiFP-1">
          <mxGeometry y="241.56410334660455" width="278" height="26" as="geometry" />
        </mxCell>
        <mxCell id="uqK8QcpsEyStqq74XiFP-12" value="+void setUsername(String username)" style="text;strokeColor=none;fillColor=none;align=left;verticalAlign=top;spacingLeft=4;spacingRight=4;overflow=hidden;rotatable=0;points=[[0,0.5],[1,0.5]];portConstraint=eastwest;fontFamily=Ubuntu Mono;fontSource=https%3A%2F%2Ffonts.googleapis.com%2Fcss%3Ffamily%3DUbuntu%2BMono;fontSize=16;" vertex="1" parent="uqK8QcpsEyStqq74XiFP-1">
          <mxGeometry y="267.56410334660455" width="278" height="26" as="geometry" />
        </mxCell>
        <mxCell id="uqK8QcpsEyStqq74XiFP-13" value="+String getEmail()" style="text;strokeColor=none;fillColor=none;align=left;verticalAlign=top;spacingLeft=4;spacingRight=4;overflow=hidden;rotatable=0;points=[[0,0.5],[1,0.5]];portConstraint=eastwest;fontFamily=Ubuntu Mono;fontSource=https%3A%2F%2Ffonts.googleapis.com%2Fcss%3Ffamily%3DUbuntu%2BMono;fontSize=16;" vertex="1" parent="uqK8QcpsEyStqq74XiFP-1">
          <mxGeometry y="293.56410334660455" width="278" height="26" as="geometry" />
        </mxCell>
        <mxCell id="uqK8QcpsEyStqq74XiFP-14" value="+void setEmail(String email)" style="text;strokeColor=none;fillColor=none;align=left;verticalAlign=top;spacingLeft=4;spacingRight=4;overflow=hidden;rotatable=0;points=[[0,0.5],[1,0.5]];portConstraint=eastwest;fontFamily=Ubuntu Mono;fontSource=https%3A%2F%2Ffonts.googleapis.com%2Fcss%3Ffamily%3DUbuntu%2BMono;fontSize=16;" vertex="1" parent="uqK8QcpsEyStqq74XiFP-1">
          <mxGeometry y="319.56410334660455" width="278" height="26" as="geometry" />
        </mxCell>
        <mxCell id="uqK8QcpsEyStqq74XiFP-15" value="Student" style="swimlane;fontStyle=1;align=center;verticalAlign=top;childLayout=stackLayout;horizontal=1;startSize=25.97222137451172;horizontalStack=0;resizeParent=1;resizeParentMax=0;resizeLast=0;collapsible=0;marginBottom=0;fontFamily=Ubuntu Mono;fontSource=https%3A%2F%2Ffonts.googleapis.com%2Fcss%3Ffamily%3DUbuntu%2BMono;fontSize=16;" vertex="1" parent="1">
          <mxGeometry x="1350" y="503" width="347" height="319.9722213745117" as="geometry" />
        </mxCell>
        <mxCell id="uqK8QcpsEyStqq74XiFP-16" value="-Date enrollmentDate" style="text;strokeColor=none;fillColor=none;align=left;verticalAlign=top;spacingLeft=4;spacingRight=4;overflow=hidden;rotatable=0;points=[[0,0.5],[1,0.5]];portConstraint=eastwest;fontFamily=Ubuntu Mono;fontSource=https%3A%2F%2Ffonts.googleapis.com%2Fcss%3Ffamily%3DUbuntu%2BMono;fontSize=16;" vertex="1" parent="uqK8QcpsEyStqq74XiFP-15">
          <mxGeometry y="25.97222137451172" width="347" height="26" as="geometry" />
        </mxCell>
        <mxCell id="uqK8QcpsEyStqq74XiFP-17" value="-String status" style="text;strokeColor=none;fillColor=none;align=left;verticalAlign=top;spacingLeft=4;spacingRight=4;overflow=hidden;rotatable=0;points=[[0,0.5],[1,0.5]];portConstraint=eastwest;fontFamily=Ubuntu Mono;fontSource=https%3A%2F%2Ffonts.googleapis.com%2Fcss%3Ffamily%3DUbuntu%2BMono;fontSize=16;" vertex="1" parent="uqK8QcpsEyStqq74XiFP-15">
          <mxGeometry y="51.97222137451172" width="347" height="26" as="geometry" />
        </mxCell>
        <mxCell id="uqK8QcpsEyStqq74XiFP-18" style="line;strokeWidth=1;fillColor=none;align=left;verticalAlign=middle;spacingTop=-1;spacingLeft=3;spacingRight=3;rotatable=0;labelPosition=right;points=[];portConstraint=eastwest;strokeColor=inherit;fontFamily=Ubuntu Mono;fontSource=https%3A%2F%2Ffonts.googleapis.com%2Fcss%3Ffamily%3DUbuntu%2BMono;fontSize=16;" vertex="1" parent="uqK8QcpsEyStqq74XiFP-15">
          <mxGeometry y="77.97222137451172" width="347" height="8" as="geometry" />
        </mxCell>
        <mxCell id="uqK8QcpsEyStqq74XiFP-19" value="+void viewAvailableTests()" style="text;strokeColor=none;fillColor=none;align=left;verticalAlign=top;spacingLeft=4;spacingRight=4;overflow=hidden;rotatable=0;points=[[0,0.5],[1,0.5]];portConstraint=eastwest;fontFamily=Ubuntu Mono;fontSource=https%3A%2F%2Ffonts.googleapis.com%2Fcss%3Ffamily%3DUbuntu%2BMono;fontSize=16;" vertex="1" parent="uqK8QcpsEyStqq74XiFP-15">
          <mxGeometry y="85.97222137451172" width="347" height="26" as="geometry" />
        </mxCell>
        <mxCell id="uqK8QcpsEyStqq74XiFP-20" value="+void takeTest(int testID)" style="text;strokeColor=none;fillColor=none;align=left;verticalAlign=top;spacingLeft=4;spacingRight=4;overflow=hidden;rotatable=0;points=[[0,0.5],[1,0.5]];portConstraint=eastwest;fontFamily=Ubuntu Mono;fontSource=https%3A%2F%2Ffonts.googleapis.com%2Fcss%3Ffamily%3DUbuntu%2BMono;fontSize=16;" vertex="1" parent="uqK8QcpsEyStqq74XiFP-15">
          <mxGeometry y="111.97222137451172" width="347" height="26" as="geometry" />
        </mxCell>
        <mxCell id="uqK8QcpsEyStqq74XiFP-21" value="+void viewResponseHistory(int testID)" style="text;strokeColor=none;fillColor=none;align=left;verticalAlign=top;spacingLeft=4;spacingRight=4;overflow=hidden;rotatable=0;points=[[0,0.5],[1,0.5]];portConstraint=eastwest;fontFamily=Ubuntu Mono;fontSource=https%3A%2F%2Ffonts.googleapis.com%2Fcss%3Ffamily%3DUbuntu%2BMono;fontSize=16;" vertex="1" parent="uqK8QcpsEyStqq74XiFP-15">
          <mxGeometry y="137.97222137451172" width="347" height="26" as="geometry" />
        </mxCell>
        <mxCell id="uqK8QcpsEyStqq74XiFP-22" value="+void viewPerformanceReports(int testID)" style="text;strokeColor=none;fillColor=none;align=left;verticalAlign=top;spacingLeft=4;spacingRight=4;overflow=hidden;rotatable=0;points=[[0,0.5],[1,0.5]];portConstraint=eastwest;fontFamily=Ubuntu Mono;fontSource=https%3A%2F%2Ffonts.googleapis.com%2Fcss%3Ffamily%3DUbuntu%2BMono;fontSize=16;" vertex="1" parent="uqK8QcpsEyStqq74XiFP-15">
          <mxGeometry y="163.97222137451172" width="347" height="26" as="geometry" />
        </mxCell>
        <mxCell id="uqK8QcpsEyStqq74XiFP-23" value="+void purchaseSubscription(int subscriptionID)" style="text;strokeColor=none;fillColor=none;align=left;verticalAlign=top;spacingLeft=4;spacingRight=4;overflow=hidden;rotatable=0;points=[[0,0.5],[1,0.5]];portConstraint=eastwest;fontFamily=Ubuntu Mono;fontSource=https%3A%2F%2Ffonts.googleapis.com%2Fcss%3Ffamily%3DUbuntu%2BMono;fontSize=16;" vertex="1" parent="uqK8QcpsEyStqq74XiFP-15">
          <mxGeometry y="189.97222137451172" width="347" height="26" as="geometry" />
        </mxCell>
        <mxCell id="uqK8QcpsEyStqq74XiFP-24" value="+Date getEnrollmentDate()" style="text;strokeColor=none;fillColor=none;align=left;verticalAlign=top;spacingLeft=4;spacingRight=4;overflow=hidden;rotatable=0;points=[[0,0.5],[1,0.5]];portConstraint=eastwest;fontFamily=Ubuntu Mono;fontSource=https%3A%2F%2Ffonts.googleapis.com%2Fcss%3Ffamily%3DUbuntu%2BMono;fontSize=16;" vertex="1" parent="uqK8QcpsEyStqq74XiFP-15">
          <mxGeometry y="215.97222137451172" width="347" height="26" as="geometry" />
        </mxCell>
        <mxCell id="uqK8QcpsEyStqq74XiFP-25" value="+void setEnrollmentDate(Date date)" style="text;strokeColor=none;fillColor=none;align=left;verticalAlign=top;spacingLeft=4;spacingRight=4;overflow=hidden;rotatable=0;points=[[0,0.5],[1,0.5]];portConstraint=eastwest;fontFamily=Ubuntu Mono;fontSource=https%3A%2F%2Ffonts.googleapis.com%2Fcss%3Ffamily%3DUbuntu%2BMono;fontSize=16;" vertex="1" parent="uqK8QcpsEyStqq74XiFP-15">
          <mxGeometry y="241.97222137451172" width="347" height="26" as="geometry" />
        </mxCell>
        <mxCell id="uqK8QcpsEyStqq74XiFP-26" value="+String getStatus()" style="text;strokeColor=none;fillColor=none;align=left;verticalAlign=top;spacingLeft=4;spacingRight=4;overflow=hidden;rotatable=0;points=[[0,0.5],[1,0.5]];portConstraint=eastwest;fontFamily=Ubuntu Mono;fontSource=https%3A%2F%2Ffonts.googleapis.com%2Fcss%3Ffamily%3DUbuntu%2BMono;fontSize=16;" vertex="1" parent="uqK8QcpsEyStqq74XiFP-15">
          <mxGeometry y="267.9722213745117" width="347" height="26" as="geometry" />
        </mxCell>
        <mxCell id="uqK8QcpsEyStqq74XiFP-27" value="+void setStatus(String status)" style="text;strokeColor=none;fillColor=none;align=left;verticalAlign=top;spacingLeft=4;spacingRight=4;overflow=hidden;rotatable=0;points=[[0,0.5],[1,0.5]];portConstraint=eastwest;fontFamily=Ubuntu Mono;fontSource=https%3A%2F%2Ffonts.googleapis.com%2Fcss%3Ffamily%3DUbuntu%2BMono;fontSize=16;" vertex="1" parent="uqK8QcpsEyStqq74XiFP-15">
          <mxGeometry y="293.9722213745117" width="347" height="26" as="geometry" />
        </mxCell>
        <mxCell id="uqK8QcpsEyStqq74XiFP-28" value="Teacher" style="swimlane;fontStyle=1;align=center;verticalAlign=top;childLayout=stackLayout;horizontal=1;startSize=25.879628499348957;horizontalStack=0;resizeParent=1;resizeParentMax=0;resizeLast=0;collapsible=0;marginBottom=0;fontFamily=Ubuntu Mono;fontSource=https%3A%2F%2Ffonts.googleapis.com%2Fcss%3Ffamily%3DUbuntu%2BMono;fontSize=16;" vertex="1" parent="1">
          <mxGeometry x="2787" y="621" width="333" height="319.87962849934894" as="geometry" />
        </mxCell>
        <mxCell id="uqK8QcpsEyStqq74XiFP-29" value="-String qualifications" style="text;strokeColor=none;fillColor=none;align=left;verticalAlign=top;spacingLeft=4;spacingRight=4;overflow=hidden;rotatable=0;points=[[0,0.5],[1,0.5]];portConstraint=eastwest;fontFamily=Ubuntu Mono;fontSource=https%3A%2F%2Ffonts.googleapis.com%2Fcss%3Ffamily%3DUbuntu%2BMono;fontSize=16;" vertex="1" parent="uqK8QcpsEyStqq74XiFP-28">
          <mxGeometry y="25.879628499348957" width="333" height="26" as="geometry" />
        </mxCell>
        <mxCell id="uqK8QcpsEyStqq74XiFP-30" value="-Date hireDate" style="text;strokeColor=none;fillColor=none;align=left;verticalAlign=top;spacingLeft=4;spacingRight=4;overflow=hidden;rotatable=0;points=[[0,0.5],[1,0.5]];portConstraint=eastwest;fontFamily=Ubuntu Mono;fontSource=https%3A%2F%2Ffonts.googleapis.com%2Fcss%3Ffamily%3DUbuntu%2BMono;fontSize=16;" vertex="1" parent="uqK8QcpsEyStqq74XiFP-28">
          <mxGeometry y="51.879628499348954" width="333" height="26" as="geometry" />
        </mxCell>
        <mxCell id="uqK8QcpsEyStqq74XiFP-31" value="-String employmentStatus" style="text;strokeColor=none;fillColor=none;align=left;verticalAlign=top;spacingLeft=4;spacingRight=4;overflow=hidden;rotatable=0;points=[[0,0.5],[1,0.5]];portConstraint=eastwest;fontFamily=Ubuntu Mono;fontSource=https%3A%2F%2Ffonts.googleapis.com%2Fcss%3Ffamily%3DUbuntu%2BMono;fontSize=16;" vertex="1" parent="uqK8QcpsEyStqq74XiFP-28">
          <mxGeometry y="77.87962849934895" width="333" height="26" as="geometry" />
        </mxCell>
        <mxCell id="uqK8QcpsEyStqq74XiFP-32" style="line;strokeWidth=1;fillColor=none;align=left;verticalAlign=middle;spacingTop=-1;spacingLeft=3;spacingRight=3;rotatable=0;labelPosition=right;points=[];portConstraint=eastwest;strokeColor=inherit;fontFamily=Ubuntu Mono;fontSource=https%3A%2F%2Ffonts.googleapis.com%2Fcss%3Ffamily%3DUbuntu%2BMono;fontSize=16;" vertex="1" parent="uqK8QcpsEyStqq74XiFP-28">
          <mxGeometry y="103.87962849934895" width="333" height="8" as="geometry" />
        </mxCell>
        <mxCell id="uqK8QcpsEyStqq74XiFP-33" value="+void createTest(Test test)" style="text;strokeColor=none;fillColor=none;align=left;verticalAlign=top;spacingLeft=4;spacingRight=4;overflow=hidden;rotatable=0;points=[[0,0.5],[1,0.5]];portConstraint=eastwest;fontFamily=Ubuntu Mono;fontSource=https%3A%2F%2Ffonts.googleapis.com%2Fcss%3Ffamily%3DUbuntu%2BMono;fontSize=16;" vertex="1" parent="uqK8QcpsEyStqq74XiFP-28">
          <mxGeometry y="111.87962849934895" width="333" height="26" as="geometry" />
        </mxCell>
        <mxCell id="uqK8QcpsEyStqq74XiFP-34" value="+void gradeResponses(Response[] responses)" style="text;strokeColor=none;fillColor=none;align=left;verticalAlign=top;spacingLeft=4;spacingRight=4;overflow=hidden;rotatable=0;points=[[0,0.5],[1,0.5]];portConstraint=eastwest;fontFamily=Ubuntu Mono;fontSource=https%3A%2F%2Ffonts.googleapis.com%2Fcss%3Ffamily%3DUbuntu%2BMono;fontSize=16;" vertex="1" parent="uqK8QcpsEyStqq74XiFP-28">
          <mxGeometry y="137.87962849934894" width="333" height="26" as="geometry" />
        </mxCell>
        <mxCell id="uqK8QcpsEyStqq74XiFP-35" value="+void manageTestDetails(int testID)" style="text;strokeColor=none;fillColor=none;align=left;verticalAlign=top;spacingLeft=4;spacingRight=4;overflow=hidden;rotatable=0;points=[[0,0.5],[1,0.5]];portConstraint=eastwest;fontFamily=Ubuntu Mono;fontSource=https%3A%2F%2Ffonts.googleapis.com%2Fcss%3Ffamily%3DUbuntu%2BMono;fontSize=16;" vertex="1" parent="uqK8QcpsEyStqq74XiFP-28">
          <mxGeometry y="163.87962849934894" width="333" height="26" as="geometry" />
        </mxCell>
        <mxCell id="uqK8QcpsEyStqq74XiFP-36" value="+void monitorStudentProgress(int studentID)" style="text;strokeColor=none;fillColor=none;align=left;verticalAlign=top;spacingLeft=4;spacingRight=4;overflow=hidden;rotatable=0;points=[[0,0.5],[1,0.5]];portConstraint=eastwest;fontFamily=Ubuntu Mono;fontSource=https%3A%2F%2Ffonts.googleapis.com%2Fcss%3Ffamily%3DUbuntu%2BMono;fontSize=16;" vertex="1" parent="uqK8QcpsEyStqq74XiFP-28">
          <mxGeometry y="189.87962849934894" width="333" height="26" as="geometry" />
        </mxCell>
        <mxCell id="uqK8QcpsEyStqq74XiFP-37" value="+String getQualifications()" style="text;strokeColor=none;fillColor=none;align=left;verticalAlign=top;spacingLeft=4;spacingRight=4;overflow=hidden;rotatable=0;points=[[0,0.5],[1,0.5]];portConstraint=eastwest;fontFamily=Ubuntu Mono;fontSource=https%3A%2F%2Ffonts.googleapis.com%2Fcss%3Ffamily%3DUbuntu%2BMono;fontSize=16;" vertex="1" parent="uqK8QcpsEyStqq74XiFP-28">
          <mxGeometry y="215.87962849934894" width="333" height="26" as="geometry" />
        </mxCell>
        <mxCell id="uqK8QcpsEyStqq74XiFP-38" value="+void setQualifications(String qualifications)" style="text;strokeColor=none;fillColor=none;align=left;verticalAlign=top;spacingLeft=4;spacingRight=4;overflow=hidden;rotatable=0;points=[[0,0.5],[1,0.5]];portConstraint=eastwest;fontFamily=Ubuntu Mono;fontSource=https%3A%2F%2Ffonts.googleapis.com%2Fcss%3Ffamily%3DUbuntu%2BMono;fontSize=16;" vertex="1" parent="uqK8QcpsEyStqq74XiFP-28">
          <mxGeometry y="241.87962849934894" width="333" height="26" as="geometry" />
        </mxCell>
        <mxCell id="uqK8QcpsEyStqq74XiFP-39" value="+Date getHireDate()" style="text;strokeColor=none;fillColor=none;align=left;verticalAlign=top;spacingLeft=4;spacingRight=4;overflow=hidden;rotatable=0;points=[[0,0.5],[1,0.5]];portConstraint=eastwest;fontFamily=Ubuntu Mono;fontSource=https%3A%2F%2Ffonts.googleapis.com%2Fcss%3Ffamily%3DUbuntu%2BMono;fontSize=16;" vertex="1" parent="uqK8QcpsEyStqq74XiFP-28">
          <mxGeometry y="267.87962849934894" width="333" height="26" as="geometry" />
        </mxCell>
        <mxCell id="uqK8QcpsEyStqq74XiFP-40" value="+void setHireDate(Date hireDate)" style="text;strokeColor=none;fillColor=none;align=left;verticalAlign=top;spacingLeft=4;spacingRight=4;overflow=hidden;rotatable=0;points=[[0,0.5],[1,0.5]];portConstraint=eastwest;fontFamily=Ubuntu Mono;fontSource=https%3A%2F%2Ffonts.googleapis.com%2Fcss%3Ffamily%3DUbuntu%2BMono;fontSize=16;" vertex="1" parent="uqK8QcpsEyStqq74XiFP-28">
          <mxGeometry y="293.87962849934894" width="333" height="26" as="geometry" />
        </mxCell>
        <mxCell id="uqK8QcpsEyStqq74XiFP-41" value="InstituteAdmin" style="swimlane;fontStyle=1;align=center;verticalAlign=top;childLayout=stackLayout;horizontal=1;startSize=25.373016357421875;horizontalStack=0;resizeParent=1;resizeParentMax=0;resizeLast=0;collapsible=0;marginBottom=0;fontFamily=Ubuntu Mono;fontSource=https%3A%2F%2Ffonts.googleapis.com%2Fcss%3Ffamily%3DUbuntu%2BMono;fontSize=16;" vertex="1" parent="1">
          <mxGeometry x="458" y="917" width="301" height="358.3730163574219" as="geometry" />
        </mxCell>
        <mxCell id="uqK8QcpsEyStqq74XiFP-42" value="-String adminName" style="text;strokeColor=none;fillColor=none;align=left;verticalAlign=top;spacingLeft=4;spacingRight=4;overflow=hidden;rotatable=0;points=[[0,0.5],[1,0.5]];portConstraint=eastwest;fontFamily=Ubuntu Mono;fontSource=https%3A%2F%2Ffonts.googleapis.com%2Fcss%3Ffamily%3DUbuntu%2BMono;fontSize=16;" vertex="1" parent="uqK8QcpsEyStqq74XiFP-41">
          <mxGeometry y="25.373016357421875" width="301" height="25" as="geometry" />
        </mxCell>
        <mxCell id="uqK8QcpsEyStqq74XiFP-43" value="-String adminEmail" style="text;strokeColor=none;fillColor=none;align=left;verticalAlign=top;spacingLeft=4;spacingRight=4;overflow=hidden;rotatable=0;points=[[0,0.5],[1,0.5]];portConstraint=eastwest;fontFamily=Ubuntu Mono;fontSource=https%3A%2F%2Ffonts.googleapis.com%2Fcss%3Ffamily%3DUbuntu%2BMono;fontSize=16;" vertex="1" parent="uqK8QcpsEyStqq74XiFP-41">
          <mxGeometry y="50.373016357421875" width="301" height="25" as="geometry" />
        </mxCell>
        <mxCell id="uqK8QcpsEyStqq74XiFP-44" value="-String officeLocation" style="text;strokeColor=none;fillColor=none;align=left;verticalAlign=top;spacingLeft=4;spacingRight=4;overflow=hidden;rotatable=0;points=[[0,0.5],[1,0.5]];portConstraint=eastwest;fontFamily=Ubuntu Mono;fontSource=https%3A%2F%2Ffonts.googleapis.com%2Fcss%3Ffamily%3DUbuntu%2BMono;fontSize=16;" vertex="1" parent="uqK8QcpsEyStqq74XiFP-41">
          <mxGeometry y="75.37301635742188" width="301" height="25" as="geometry" />
        </mxCell>
        <mxCell id="uqK8QcpsEyStqq74XiFP-45" value="-String websiteURL" style="text;strokeColor=none;fillColor=none;align=left;verticalAlign=top;spacingLeft=4;spacingRight=4;overflow=hidden;rotatable=0;points=[[0,0.5],[1,0.5]];portConstraint=eastwest;fontFamily=Ubuntu Mono;fontSource=https%3A%2F%2Ffonts.googleapis.com%2Fcss%3Ffamily%3DUbuntu%2BMono;fontSize=16;" vertex="1" parent="uqK8QcpsEyStqq74XiFP-41">
          <mxGeometry y="100.37301635742188" width="301" height="25" as="geometry" />
        </mxCell>
        <mxCell id="uqK8QcpsEyStqq74XiFP-46" value="-int maxTeachersAllowed" style="text;strokeColor=none;fillColor=none;align=left;verticalAlign=top;spacingLeft=4;spacingRight=4;overflow=hidden;rotatable=0;points=[[0,0.5],[1,0.5]];portConstraint=eastwest;fontFamily=Ubuntu Mono;fontSource=https%3A%2F%2Ffonts.googleapis.com%2Fcss%3Ffamily%3DUbuntu%2BMono;fontSize=16;" vertex="1" parent="uqK8QcpsEyStqq74XiFP-41">
          <mxGeometry y="125.37301635742188" width="301" height="25" as="geometry" />
        </mxCell>
        <mxCell id="uqK8QcpsEyStqq74XiFP-47" value="-int maxStudentsAllowed" style="text;strokeColor=none;fillColor=none;align=left;verticalAlign=top;spacingLeft=4;spacingRight=4;overflow=hidden;rotatable=0;points=[[0,0.5],[1,0.5]];portConstraint=eastwest;fontFamily=Ubuntu Mono;fontSource=https%3A%2F%2Ffonts.googleapis.com%2Fcss%3Ffamily%3DUbuntu%2BMono;fontSize=16;" vertex="1" parent="uqK8QcpsEyStqq74XiFP-41">
          <mxGeometry y="150.37301635742188" width="301" height="25" as="geometry" />
        </mxCell>
        <mxCell id="uqK8QcpsEyStqq74XiFP-48" style="line;strokeWidth=1;fillColor=none;align=left;verticalAlign=middle;spacingTop=-1;spacingLeft=3;spacingRight=3;rotatable=0;labelPosition=right;points=[];portConstraint=eastwest;strokeColor=inherit;fontFamily=Ubuntu Mono;fontSource=https%3A%2F%2Ffonts.googleapis.com%2Fcss%3Ffamily%3DUbuntu%2BMono;fontSize=16;" vertex="1" parent="uqK8QcpsEyStqq74XiFP-41">
          <mxGeometry y="175.37301635742188" width="301" height="8" as="geometry" />
        </mxCell>
        <mxCell id="uqK8QcpsEyStqq74XiFP-49" value="+void overseeInstitute()" style="text;strokeColor=none;fillColor=none;align=left;verticalAlign=top;spacingLeft=4;spacingRight=4;overflow=hidden;rotatable=0;points=[[0,0.5],[1,0.5]];portConstraint=eastwest;fontFamily=Ubuntu Mono;fontSource=https%3A%2F%2Ffonts.googleapis.com%2Fcss%3Ffamily%3DUbuntu%2BMono;fontSize=16;" vertex="1" parent="uqK8QcpsEyStqq74XiFP-41">
          <mxGeometry y="183.37301635742188" width="301" height="25" as="geometry" />
        </mxCell>
        <mxCell id="uqK8QcpsEyStqq74XiFP-50" value="+void appointTeacher(Teacher teacher)" style="text;strokeColor=none;fillColor=none;align=left;verticalAlign=top;spacingLeft=4;spacingRight=4;overflow=hidden;rotatable=0;points=[[0,0.5],[1,0.5]];portConstraint=eastwest;fontFamily=Ubuntu Mono;fontSource=https%3A%2F%2Ffonts.googleapis.com%2Fcss%3Ffamily%3DUbuntu%2BMono;fontSize=16;" vertex="1" parent="uqK8QcpsEyStqq74XiFP-41">
          <mxGeometry y="208.37301635742188" width="301" height="25" as="geometry" />
        </mxCell>
        <mxCell id="uqK8QcpsEyStqq74XiFP-51" value="+void administerStudent(int studentID)" style="text;strokeColor=none;fillColor=none;align=left;verticalAlign=top;spacingLeft=4;spacingRight=4;overflow=hidden;rotatable=0;points=[[0,0.5],[1,0.5]];portConstraint=eastwest;fontFamily=Ubuntu Mono;fontSource=https%3A%2F%2Ffonts.googleapis.com%2Fcss%3Ffamily%3DUbuntu%2BMono;fontSize=16;" vertex="1" parent="uqK8QcpsEyStqq74XiFP-41">
          <mxGeometry y="233.37301635742188" width="301" height="25" as="geometry" />
        </mxCell>
        <mxCell id="uqK8QcpsEyStqq74XiFP-52" value="+String getAdminName()" style="text;strokeColor=none;fillColor=none;align=left;verticalAlign=top;spacingLeft=4;spacingRight=4;overflow=hidden;rotatable=0;points=[[0,0.5],[1,0.5]];portConstraint=eastwest;fontFamily=Ubuntu Mono;fontSource=https%3A%2F%2Ffonts.googleapis.com%2Fcss%3Ffamily%3DUbuntu%2BMono;fontSize=16;" vertex="1" parent="uqK8QcpsEyStqq74XiFP-41">
          <mxGeometry y="258.3730163574219" width="301" height="25" as="geometry" />
        </mxCell>
        <mxCell id="uqK8QcpsEyStqq74XiFP-53" value="+void setAdminName(String name)" style="text;strokeColor=none;fillColor=none;align=left;verticalAlign=top;spacingLeft=4;spacingRight=4;overflow=hidden;rotatable=0;points=[[0,0.5],[1,0.5]];portConstraint=eastwest;fontFamily=Ubuntu Mono;fontSource=https%3A%2F%2Ffonts.googleapis.com%2Fcss%3Ffamily%3DUbuntu%2BMono;fontSize=16;" vertex="1" parent="uqK8QcpsEyStqq74XiFP-41">
          <mxGeometry y="283.3730163574219" width="301" height="25" as="geometry" />
        </mxCell>
        <mxCell id="uqK8QcpsEyStqq74XiFP-54" value="+String getOfficeLocation()" style="text;strokeColor=none;fillColor=none;align=left;verticalAlign=top;spacingLeft=4;spacingRight=4;overflow=hidden;rotatable=0;points=[[0,0.5],[1,0.5]];portConstraint=eastwest;fontFamily=Ubuntu Mono;fontSource=https%3A%2F%2Ffonts.googleapis.com%2Fcss%3Ffamily%3DUbuntu%2BMono;fontSize=16;" vertex="1" parent="uqK8QcpsEyStqq74XiFP-41">
          <mxGeometry y="308.3730163574219" width="301" height="25" as="geometry" />
        </mxCell>
        <mxCell id="uqK8QcpsEyStqq74XiFP-55" value="+void setOfficeLocation(String location)" style="text;strokeColor=none;fillColor=none;align=left;verticalAlign=top;spacingLeft=4;spacingRight=4;overflow=hidden;rotatable=0;points=[[0,0.5],[1,0.5]];portConstraint=eastwest;fontFamily=Ubuntu Mono;fontSource=https%3A%2F%2Ffonts.googleapis.com%2Fcss%3Ffamily%3DUbuntu%2BMono;fontSize=16;" vertex="1" parent="uqK8QcpsEyStqq74XiFP-41">
          <mxGeometry y="333.3730163574219" width="301" height="25" as="geometry" />
        </mxCell>
        <mxCell id="uqK8QcpsEyStqq74XiFP-56" value="Institute" style="swimlane;fontStyle=1;align=center;verticalAlign=top;childLayout=stackLayout;horizontal=1;startSize=25.879628499348957;horizontalStack=0;resizeParent=1;resizeParentMax=0;resizeLast=0;collapsible=0;marginBottom=0;fontFamily=Ubuntu Mono;fontSource=https%3A%2F%2Ffonts.googleapis.com%2Fcss%3Ffamily%3DUbuntu%2BMono;fontSize=16;" vertex="1" parent="1">
          <mxGeometry x="881" y="940" width="360" height="319.87962849934894" as="geometry" />
        </mxCell>
        <mxCell id="uqK8QcpsEyStqq74XiFP-57" value="-String instituteName" style="text;strokeColor=none;fillColor=none;align=left;verticalAlign=top;spacingLeft=4;spacingRight=4;overflow=hidden;rotatable=0;points=[[0,0.5],[1,0.5]];portConstraint=eastwest;fontFamily=Ubuntu Mono;fontSource=https%3A%2F%2Ffonts.googleapis.com%2Fcss%3Ffamily%3DUbuntu%2BMono;fontSize=16;" vertex="1" parent="uqK8QcpsEyStqq74XiFP-56">
          <mxGeometry y="25.879628499348957" width="360" height="26" as="geometry" />
        </mxCell>
        <mxCell id="uqK8QcpsEyStqq74XiFP-58" value="-String address" style="text;strokeColor=none;fillColor=none;align=left;verticalAlign=top;spacingLeft=4;spacingRight=4;overflow=hidden;rotatable=0;points=[[0,0.5],[1,0.5]];portConstraint=eastwest;fontFamily=Ubuntu Mono;fontSource=https%3A%2F%2Ffonts.googleapis.com%2Fcss%3Ffamily%3DUbuntu%2BMono;fontSize=16;" vertex="1" parent="uqK8QcpsEyStqq74XiFP-56">
          <mxGeometry y="51.879628499348954" width="360" height="26" as="geometry" />
        </mxCell>
        <mxCell id="uqK8QcpsEyStqq74XiFP-59" value="-String contactNumber" style="text;strokeColor=none;fillColor=none;align=left;verticalAlign=top;spacingLeft=4;spacingRight=4;overflow=hidden;rotatable=0;points=[[0,0.5],[1,0.5]];portConstraint=eastwest;fontFamily=Ubuntu Mono;fontSource=https%3A%2F%2Ffonts.googleapis.com%2Fcss%3Ffamily%3DUbuntu%2BMono;fontSize=16;" vertex="1" parent="uqK8QcpsEyStqq74XiFP-56">
          <mxGeometry y="77.87962849934895" width="360" height="26" as="geometry" />
        </mxCell>
        <mxCell id="uqK8QcpsEyStqq74XiFP-60" style="line;strokeWidth=1;fillColor=none;align=left;verticalAlign=middle;spacingTop=-1;spacingLeft=3;spacingRight=3;rotatable=0;labelPosition=right;points=[];portConstraint=eastwest;strokeColor=inherit;fontFamily=Ubuntu Mono;fontSource=https%3A%2F%2Ffonts.googleapis.com%2Fcss%3Ffamily%3DUbuntu%2BMono;fontSize=16;" vertex="1" parent="uqK8QcpsEyStqq74XiFP-56">
          <mxGeometry y="103.87962849934895" width="360" height="8" as="geometry" />
        </mxCell>
        <mxCell id="uqK8QcpsEyStqq74XiFP-61" value="+void registerTeacher(Teacher teacher)" style="text;strokeColor=none;fillColor=none;align=left;verticalAlign=top;spacingLeft=4;spacingRight=4;overflow=hidden;rotatable=0;points=[[0,0.5],[1,0.5]];portConstraint=eastwest;fontFamily=Ubuntu Mono;fontSource=https%3A%2F%2Ffonts.googleapis.com%2Fcss%3Ffamily%3DUbuntu%2BMono;fontSize=16;" vertex="1" parent="uqK8QcpsEyStqq74XiFP-56">
          <mxGeometry y="111.87962849934895" width="360" height="26" as="geometry" />
        </mxCell>
        <mxCell id="uqK8QcpsEyStqq74XiFP-62" value="+void registerStudent(Student student)" style="text;strokeColor=none;fillColor=none;align=left;verticalAlign=top;spacingLeft=4;spacingRight=4;overflow=hidden;rotatable=0;points=[[0,0.5],[1,0.5]];portConstraint=eastwest;fontFamily=Ubuntu Mono;fontSource=https%3A%2F%2Ffonts.googleapis.com%2Fcss%3Ffamily%3DUbuntu%2BMono;fontSize=16;" vertex="1" parent="uqK8QcpsEyStqq74XiFP-56">
          <mxGeometry y="137.87962849934894" width="360" height="26" as="geometry" />
        </mxCell>
        <mxCell id="uqK8QcpsEyStqq74XiFP-63" value="+void monitorTeachers()" style="text;strokeColor=none;fillColor=none;align=left;verticalAlign=top;spacingLeft=4;spacingRight=4;overflow=hidden;rotatable=0;points=[[0,0.5],[1,0.5]];portConstraint=eastwest;fontFamily=Ubuntu Mono;fontSource=https%3A%2F%2Ffonts.googleapis.com%2Fcss%3Ffamily%3DUbuntu%2BMono;fontSize=16;" vertex="1" parent="uqK8QcpsEyStqq74XiFP-56">
          <mxGeometry y="163.87962849934894" width="360" height="26" as="geometry" />
        </mxCell>
        <mxCell id="uqK8QcpsEyStqq74XiFP-64" value="+void monitorStudents()" style="text;strokeColor=none;fillColor=none;align=left;verticalAlign=top;spacingLeft=4;spacingRight=4;overflow=hidden;rotatable=0;points=[[0,0.5],[1,0.5]];portConstraint=eastwest;fontFamily=Ubuntu Mono;fontSource=https%3A%2F%2Ffonts.googleapis.com%2Fcss%3Ffamily%3DUbuntu%2BMono;fontSize=16;" vertex="1" parent="uqK8QcpsEyStqq74XiFP-56">
          <mxGeometry y="189.87962849934894" width="360" height="26" as="geometry" />
        </mxCell>
        <mxCell id="uqK8QcpsEyStqq74XiFP-65" value="+String getInstituteName()" style="text;strokeColor=none;fillColor=none;align=left;verticalAlign=top;spacingLeft=4;spacingRight=4;overflow=hidden;rotatable=0;points=[[0,0.5],[1,0.5]];portConstraint=eastwest;fontFamily=Ubuntu Mono;fontSource=https%3A%2F%2Ffonts.googleapis.com%2Fcss%3Ffamily%3DUbuntu%2BMono;fontSize=16;" vertex="1" parent="uqK8QcpsEyStqq74XiFP-56">
          <mxGeometry y="215.87962849934894" width="360" height="26" as="geometry" />
        </mxCell>
        <mxCell id="uqK8QcpsEyStqq74XiFP-66" value="+void setInstituteName(String instituteName)" style="text;strokeColor=none;fillColor=none;align=left;verticalAlign=top;spacingLeft=4;spacingRight=4;overflow=hidden;rotatable=0;points=[[0,0.5],[1,0.5]];portConstraint=eastwest;fontFamily=Ubuntu Mono;fontSource=https%3A%2F%2Ffonts.googleapis.com%2Fcss%3Ffamily%3DUbuntu%2BMono;fontSize=16;" vertex="1" parent="uqK8QcpsEyStqq74XiFP-56">
          <mxGeometry y="241.87962849934894" width="360" height="26" as="geometry" />
        </mxCell>
        <mxCell id="uqK8QcpsEyStqq74XiFP-67" value="+String getContactNumber()" style="text;strokeColor=none;fillColor=none;align=left;verticalAlign=top;spacingLeft=4;spacingRight=4;overflow=hidden;rotatable=0;points=[[0,0.5],[1,0.5]];portConstraint=eastwest;fontFamily=Ubuntu Mono;fontSource=https%3A%2F%2Ffonts.googleapis.com%2Fcss%3Ffamily%3DUbuntu%2BMono;fontSize=16;" vertex="1" parent="uqK8QcpsEyStqq74XiFP-56">
          <mxGeometry y="267.87962849934894" width="360" height="26" as="geometry" />
        </mxCell>
        <mxCell id="uqK8QcpsEyStqq74XiFP-68" value="+void setContactNumber(String contactNumber)" style="text;strokeColor=none;fillColor=none;align=left;verticalAlign=top;spacingLeft=4;spacingRight=4;overflow=hidden;rotatable=0;points=[[0,0.5],[1,0.5]];portConstraint=eastwest;fontFamily=Ubuntu Mono;fontSource=https%3A%2F%2Ffonts.googleapis.com%2Fcss%3Ffamily%3DUbuntu%2BMono;fontSize=16;" vertex="1" parent="uqK8QcpsEyStqq74XiFP-56">
          <mxGeometry y="293.87962849934894" width="360" height="26" as="geometry" />
        </mxCell>
        <mxCell id="uqK8QcpsEyStqq74XiFP-69" value="Test" style="swimlane;fontStyle=1;align=center;verticalAlign=top;childLayout=stackLayout;horizontal=1;startSize=25.503704833984376;horizontalStack=0;resizeParent=1;resizeParentMax=0;resizeLast=0;collapsible=0;marginBottom=0;fontFamily=Ubuntu Mono;fontSource=https%3A%2F%2Ffonts.googleapis.com%2Fcss%3Ffamily%3DUbuntu%2BMono;fontSize=16;" vertex="1" parent="1">
          <mxGeometry x="3234" y="199" width="323" height="397.5037048339844" as="geometry" />
        </mxCell>
        <mxCell id="uqK8QcpsEyStqq74XiFP-70" value="-String testName" style="text;strokeColor=none;fillColor=none;align=left;verticalAlign=top;spacingLeft=4;spacingRight=4;overflow=hidden;rotatable=0;points=[[0,0.5],[1,0.5]];portConstraint=eastwest;fontFamily=Ubuntu Mono;fontSource=https%3A%2F%2Ffonts.googleapis.com%2Fcss%3Ffamily%3DUbuntu%2BMono;fontSize=16;" vertex="1" parent="uqK8QcpsEyStqq74XiFP-69">
          <mxGeometry y="25.503704833984376" width="323" height="26" as="geometry" />
        </mxCell>
        <mxCell id="uqK8QcpsEyStqq74XiFP-71" value="-Boolean isPublic" style="text;strokeColor=none;fillColor=none;align=left;verticalAlign=top;spacingLeft=4;spacingRight=4;overflow=hidden;rotatable=0;points=[[0,0.5],[1,0.5]];portConstraint=eastwest;fontFamily=Ubuntu Mono;fontSource=https%3A%2F%2Ffonts.googleapis.com%2Fcss%3Ffamily%3DUbuntu%2BMono;fontSize=16;" vertex="1" parent="uqK8QcpsEyStqq74XiFP-69">
          <mxGeometry y="51.50370483398437" width="323" height="26" as="geometry" />
        </mxCell>
        <mxCell id="uqK8QcpsEyStqq74XiFP-72" value="-String createdBy" style="text;strokeColor=none;fillColor=none;align=left;verticalAlign=top;spacingLeft=4;spacingRight=4;overflow=hidden;rotatable=0;points=[[0,0.5],[1,0.5]];portConstraint=eastwest;fontFamily=Ubuntu Mono;fontSource=https%3A%2F%2Ffonts.googleapis.com%2Fcss%3Ffamily%3DUbuntu%2BMono;fontSize=16;" vertex="1" parent="uqK8QcpsEyStqq74XiFP-69">
          <mxGeometry y="77.50370483398437" width="323" height="26" as="geometry" />
        </mxCell>
        <mxCell id="uqK8QcpsEyStqq74XiFP-73" style="line;strokeWidth=1;fillColor=none;align=left;verticalAlign=middle;spacingTop=-1;spacingLeft=3;spacingRight=3;rotatable=0;labelPosition=right;points=[];portConstraint=eastwest;strokeColor=inherit;fontFamily=Ubuntu Mono;fontSource=https%3A%2F%2Ffonts.googleapis.com%2Fcss%3Ffamily%3DUbuntu%2BMono;fontSize=16;" vertex="1" parent="uqK8QcpsEyStqq74XiFP-69">
          <mxGeometry y="103.50370483398437" width="323" height="8" as="geometry" />
        </mxCell>
        <mxCell id="uqK8QcpsEyStqq74XiFP-74" value="+void addModule(Module module)" style="text;strokeColor=none;fillColor=none;align=left;verticalAlign=top;spacingLeft=4;spacingRight=4;overflow=hidden;rotatable=0;points=[[0,0.5],[1,0.5]];portConstraint=eastwest;fontFamily=Ubuntu Mono;fontSource=https%3A%2F%2Ffonts.googleapis.com%2Fcss%3Ffamily%3DUbuntu%2BMono;fontSize=16;" vertex="1" parent="uqK8QcpsEyStqq74XiFP-69">
          <mxGeometry y="111.50370483398437" width="323" height="26" as="geometry" />
        </mxCell>
        <mxCell id="uqK8QcpsEyStqq74XiFP-75" value="+void duplicateModule(int moduleID)" style="text;strokeColor=none;fillColor=none;align=left;verticalAlign=top;spacingLeft=4;spacingRight=4;overflow=hidden;rotatable=0;points=[[0,0.5],[1,0.5]];portConstraint=eastwest;fontFamily=Ubuntu Mono;fontSource=https%3A%2F%2Ffonts.googleapis.com%2Fcss%3Ffamily%3DUbuntu%2BMono;fontSize=16;" vertex="1" parent="uqK8QcpsEyStqq74XiFP-69">
          <mxGeometry y="137.5037048339844" width="323" height="26" as="geometry" />
        </mxCell>
        <mxCell id="uqK8QcpsEyStqq74XiFP-76" value="+void editPart(int partID)" style="text;strokeColor=none;fillColor=none;align=left;verticalAlign=top;spacingLeft=4;spacingRight=4;overflow=hidden;rotatable=0;points=[[0,0.5],[1,0.5]];portConstraint=eastwest;fontFamily=Ubuntu Mono;fontSource=https%3A%2F%2Ffonts.googleapis.com%2Fcss%3Ffamily%3DUbuntu%2BMono;fontSize=16;" vertex="1" parent="uqK8QcpsEyStqq74XiFP-69">
          <mxGeometry y="163.5037048339844" width="323" height="26" as="geometry" />
        </mxCell>
        <mxCell id="uqK8QcpsEyStqq74XiFP-77" value="+void replicatePart(int partID)" style="text;strokeColor=none;fillColor=none;align=left;verticalAlign=top;spacingLeft=4;spacingRight=4;overflow=hidden;rotatable=0;points=[[0,0.5],[1,0.5]];portConstraint=eastwest;fontFamily=Ubuntu Mono;fontSource=https%3A%2F%2Ffonts.googleapis.com%2Fcss%3Ffamily%3DUbuntu%2BMono;fontSize=16;" vertex="1" parent="uqK8QcpsEyStqq74XiFP-69">
          <mxGeometry y="189.5037048339844" width="323" height="26" as="geometry" />
        </mxCell>
        <mxCell id="uqK8QcpsEyStqq74XiFP-78" value="+void configureQuestionGroup(int groupID)" style="text;strokeColor=none;fillColor=none;align=left;verticalAlign=top;spacingLeft=4;spacingRight=4;overflow=hidden;rotatable=0;points=[[0,0.5],[1,0.5]];portConstraint=eastwest;fontFamily=Ubuntu Mono;fontSource=https%3A%2F%2Ffonts.googleapis.com%2Fcss%3Ffamily%3DUbuntu%2BMono;fontSize=16;" vertex="1" parent="uqK8QcpsEyStqq74XiFP-69">
          <mxGeometry y="215.5037048339844" width="323" height="26" as="geometry" />
        </mxCell>
        <mxCell id="uqK8QcpsEyStqq74XiFP-79" value="+void cloneQuestionGroup(int groupID)" style="text;strokeColor=none;fillColor=none;align=left;verticalAlign=top;spacingLeft=4;spacingRight=4;overflow=hidden;rotatable=0;points=[[0,0.5],[1,0.5]];portConstraint=eastwest;fontFamily=Ubuntu Mono;fontSource=https%3A%2F%2Ffonts.googleapis.com%2Fcss%3Ffamily%3DUbuntu%2BMono;fontSize=16;" vertex="1" parent="uqK8QcpsEyStqq74XiFP-69">
          <mxGeometry y="241.5037048339844" width="323" height="26" as="geometry" />
        </mxCell>
        <mxCell id="uqK8QcpsEyStqq74XiFP-80" value="+void takeTest(int testID)" style="text;strokeColor=none;fillColor=none;align=left;verticalAlign=top;spacingLeft=4;spacingRight=4;overflow=hidden;rotatable=0;points=[[0,0.5],[1,0.5]];portConstraint=eastwest;fontFamily=Ubuntu Mono;fontSource=https%3A%2F%2Ffonts.googleapis.com%2Fcss%3Ffamily%3DUbuntu%2BMono;fontSize=16;" vertex="1" parent="uqK8QcpsEyStqq74XiFP-69">
          <mxGeometry y="267.5037048339844" width="323" height="26" as="geometry" />
        </mxCell>
        <mxCell id="uqK8QcpsEyStqq74XiFP-81" value="+String getTestName()" style="text;strokeColor=none;fillColor=none;align=left;verticalAlign=top;spacingLeft=4;spacingRight=4;overflow=hidden;rotatable=0;points=[[0,0.5],[1,0.5]];portConstraint=eastwest;fontFamily=Ubuntu Mono;fontSource=https%3A%2F%2Ffonts.googleapis.com%2Fcss%3Ffamily%3DUbuntu%2BMono;fontSize=16;" vertex="1" parent="uqK8QcpsEyStqq74XiFP-69">
          <mxGeometry y="293.5037048339844" width="323" height="26" as="geometry" />
        </mxCell>
        <mxCell id="uqK8QcpsEyStqq74XiFP-82" value="+void setTestName(String name)" style="text;strokeColor=none;fillColor=none;align=left;verticalAlign=top;spacingLeft=4;spacingRight=4;overflow=hidden;rotatable=0;points=[[0,0.5],[1,0.5]];portConstraint=eastwest;fontFamily=Ubuntu Mono;fontSource=https%3A%2F%2Ffonts.googleapis.com%2Fcss%3Ffamily%3DUbuntu%2BMono;fontSize=16;" vertex="1" parent="uqK8QcpsEyStqq74XiFP-69">
          <mxGeometry y="319.5037048339844" width="323" height="26" as="geometry" />
        </mxCell>
        <mxCell id="uqK8QcpsEyStqq74XiFP-83" value="+Boolean getIsPublic()" style="text;strokeColor=none;fillColor=none;align=left;verticalAlign=top;spacingLeft=4;spacingRight=4;overflow=hidden;rotatable=0;points=[[0,0.5],[1,0.5]];portConstraint=eastwest;fontFamily=Ubuntu Mono;fontSource=https%3A%2F%2Ffonts.googleapis.com%2Fcss%3Ffamily%3DUbuntu%2BMono;fontSize=16;" vertex="1" parent="uqK8QcpsEyStqq74XiFP-69">
          <mxGeometry y="345.5037048339844" width="323" height="26" as="geometry" />
        </mxCell>
        <mxCell id="uqK8QcpsEyStqq74XiFP-84" value="+void setIsPublic(Boolean isPublic)" style="text;strokeColor=none;fillColor=none;align=left;verticalAlign=top;spacingLeft=4;spacingRight=4;overflow=hidden;rotatable=0;points=[[0,0.5],[1,0.5]];portConstraint=eastwest;fontFamily=Ubuntu Mono;fontSource=https%3A%2F%2Ffonts.googleapis.com%2Fcss%3Ffamily%3DUbuntu%2BMono;fontSize=16;" vertex="1" parent="uqK8QcpsEyStqq74XiFP-69">
          <mxGeometry y="371.5037048339844" width="323" height="26" as="geometry" />
        </mxCell>
        <mxCell id="uqK8QcpsEyStqq74XiFP-85" value="Module" style="swimlane;fontStyle=1;align=center;verticalAlign=top;childLayout=stackLayout;horizontal=1;startSize=26.255557250976562;horizontalStack=0;resizeParent=1;resizeParentMax=0;resizeLast=0;collapsible=0;marginBottom=0;fontFamily=Ubuntu Mono;fontSource=https%3A%2F%2Ffonts.googleapis.com%2Fcss%3Ffamily%3DUbuntu%2BMono;fontSize=16;" vertex="1" parent="1">
          <mxGeometry x="3676" y="259" width="308" height="268.25555725097655" as="geometry" />
        </mxCell>
        <mxCell id="uqK8QcpsEyStqq74XiFP-86" value="-String moduleType" style="text;strokeColor=none;fillColor=none;align=left;verticalAlign=top;spacingLeft=4;spacingRight=4;overflow=hidden;rotatable=0;points=[[0,0.5],[1,0.5]];portConstraint=eastwest;fontFamily=Ubuntu Mono;fontSource=https%3A%2F%2Ffonts.googleapis.com%2Fcss%3Ffamily%3DUbuntu%2BMono;fontSize=16;" vertex="1" parent="uqK8QcpsEyStqq74XiFP-85">
          <mxGeometry y="26.255557250976562" width="308" height="26" as="geometry" />
        </mxCell>
        <mxCell id="uqK8QcpsEyStqq74XiFP-87" value="-String audioResource" style="text;strokeColor=none;fillColor=none;align=left;verticalAlign=top;spacingLeft=4;spacingRight=4;overflow=hidden;rotatable=0;points=[[0,0.5],[1,0.5]];portConstraint=eastwest;fontFamily=Ubuntu Mono;fontSource=https%3A%2F%2Ffonts.googleapis.com%2Fcss%3Ffamily%3DUbuntu%2BMono;fontSize=16;" vertex="1" parent="uqK8QcpsEyStqq74XiFP-85">
          <mxGeometry y="52.255557250976565" width="308" height="26" as="geometry" />
        </mxCell>
        <mxCell id="uqK8QcpsEyStqq74XiFP-88" value="-int totalPoints" style="text;strokeColor=none;fillColor=none;align=left;verticalAlign=top;spacingLeft=4;spacingRight=4;overflow=hidden;rotatable=0;points=[[0,0.5],[1,0.5]];portConstraint=eastwest;fontFamily=Ubuntu Mono;fontSource=https%3A%2F%2Ffonts.googleapis.com%2Fcss%3Ffamily%3DUbuntu%2BMono;fontSize=16;" vertex="1" parent="uqK8QcpsEyStqq74XiFP-85">
          <mxGeometry y="78.25555725097657" width="308" height="26" as="geometry" />
        </mxCell>
        <mxCell id="uqK8QcpsEyStqq74XiFP-89" style="line;strokeWidth=1;fillColor=none;align=left;verticalAlign=middle;spacingTop=-1;spacingLeft=3;spacingRight=3;rotatable=0;labelPosition=right;points=[];portConstraint=eastwest;strokeColor=inherit;fontFamily=Ubuntu Mono;fontSource=https%3A%2F%2Ffonts.googleapis.com%2Fcss%3Ffamily%3DUbuntu%2BMono;fontSize=16;" vertex="1" parent="uqK8QcpsEyStqq74XiFP-85">
          <mxGeometry y="104.25555725097657" width="308" height="8" as="geometry" />
        </mxCell>
        <mxCell id="uqK8QcpsEyStqq74XiFP-90" value="+void addPart(Part part)" style="text;strokeColor=none;fillColor=none;align=left;verticalAlign=top;spacingLeft=4;spacingRight=4;overflow=hidden;rotatable=0;points=[[0,0.5],[1,0.5]];portConstraint=eastwest;fontFamily=Ubuntu Mono;fontSource=https%3A%2F%2Ffonts.googleapis.com%2Fcss%3Ffamily%3DUbuntu%2BMono;fontSize=16;" vertex="1" parent="uqK8QcpsEyStqq74XiFP-85">
          <mxGeometry y="112.25555725097657" width="308" height="26" as="geometry" />
        </mxCell>
        <mxCell id="uqK8QcpsEyStqq74XiFP-91" value="+void editPart(int partID)" style="text;strokeColor=none;fillColor=none;align=left;verticalAlign=top;spacingLeft=4;spacingRight=4;overflow=hidden;rotatable=0;points=[[0,0.5],[1,0.5]];portConstraint=eastwest;fontFamily=Ubuntu Mono;fontSource=https%3A%2F%2Ffonts.googleapis.com%2Fcss%3Ffamily%3DUbuntu%2BMono;fontSize=16;" vertex="1" parent="uqK8QcpsEyStqq74XiFP-85">
          <mxGeometry y="138.25555725097655" width="308" height="26" as="geometry" />
        </mxCell>
        <mxCell id="uqK8QcpsEyStqq74XiFP-92" value="+String getModuleType()" style="text;strokeColor=none;fillColor=none;align=left;verticalAlign=top;spacingLeft=4;spacingRight=4;overflow=hidden;rotatable=0;points=[[0,0.5],[1,0.5]];portConstraint=eastwest;fontFamily=Ubuntu Mono;fontSource=https%3A%2F%2Ffonts.googleapis.com%2Fcss%3Ffamily%3DUbuntu%2BMono;fontSize=16;" vertex="1" parent="uqK8QcpsEyStqq74XiFP-85">
          <mxGeometry y="164.25555725097655" width="308" height="26" as="geometry" />
        </mxCell>
        <mxCell id="uqK8QcpsEyStqq74XiFP-93" value="+void setModuleType(String moduleType)" style="text;strokeColor=none;fillColor=none;align=left;verticalAlign=top;spacingLeft=4;spacingRight=4;overflow=hidden;rotatable=0;points=[[0,0.5],[1,0.5]];portConstraint=eastwest;fontFamily=Ubuntu Mono;fontSource=https%3A%2F%2Ffonts.googleapis.com%2Fcss%3Ffamily%3DUbuntu%2BMono;fontSize=16;" vertex="1" parent="uqK8QcpsEyStqq74XiFP-85">
          <mxGeometry y="190.25555725097655" width="308" height="26" as="geometry" />
        </mxCell>
        <mxCell id="uqK8QcpsEyStqq74XiFP-94" value="+int getTotalPoints()" style="text;strokeColor=none;fillColor=none;align=left;verticalAlign=top;spacingLeft=4;spacingRight=4;overflow=hidden;rotatable=0;points=[[0,0.5],[1,0.5]];portConstraint=eastwest;fontFamily=Ubuntu Mono;fontSource=https%3A%2F%2Ffonts.googleapis.com%2Fcss%3Ffamily%3DUbuntu%2BMono;fontSize=16;" vertex="1" parent="uqK8QcpsEyStqq74XiFP-85">
          <mxGeometry y="216.25555725097655" width="308" height="26" as="geometry" />
        </mxCell>
        <mxCell id="uqK8QcpsEyStqq74XiFP-95" value="+void setTotalPoints(int totalPoints)" style="text;strokeColor=none;fillColor=none;align=left;verticalAlign=top;spacingLeft=4;spacingRight=4;overflow=hidden;rotatable=0;points=[[0,0.5],[1,0.5]];portConstraint=eastwest;fontFamily=Ubuntu Mono;fontSource=https%3A%2F%2Ffonts.googleapis.com%2Fcss%3Ffamily%3DUbuntu%2BMono;fontSize=16;" vertex="1" parent="uqK8QcpsEyStqq74XiFP-85">
          <mxGeometry y="242.25555725097655" width="308" height="26" as="geometry" />
        </mxCell>
        <mxCell id="uqK8QcpsEyStqq74XiFP-96" value="Part" style="swimlane;fontStyle=1;align=center;verticalAlign=top;childLayout=stackLayout;horizontal=1;startSize=26.255557250976562;horizontalStack=0;resizeParent=1;resizeParentMax=0;resizeLast=0;collapsible=0;marginBottom=0;fontFamily=Ubuntu Mono;fontSource=https%3A%2F%2Ffonts.googleapis.com%2Fcss%3Ffamily%3DUbuntu%2BMono;fontSize=16;" vertex="1" parent="1">
          <mxGeometry x="4151" y="259" width="418" height="268.25555725097655" as="geometry" />
        </mxCell>
        <mxCell id="uqK8QcpsEyStqq74XiFP-97" value="-String moduleType" style="text;strokeColor=none;fillColor=none;align=left;verticalAlign=top;spacingLeft=4;spacingRight=4;overflow=hidden;rotatable=0;points=[[0,0.5],[1,0.5]];portConstraint=eastwest;fontFamily=Ubuntu Mono;fontSource=https%3A%2F%2Ffonts.googleapis.com%2Fcss%3Ffamily%3DUbuntu%2BMono;fontSize=16;" vertex="1" parent="uqK8QcpsEyStqq74XiFP-96">
          <mxGeometry y="26.255557250976562" width="418" height="26" as="geometry" />
        </mxCell>
        <mxCell id="uqK8QcpsEyStqq74XiFP-98" value="-String readingPassage" style="text;strokeColor=none;fillColor=none;align=left;verticalAlign=top;spacingLeft=4;spacingRight=4;overflow=hidden;rotatable=0;points=[[0,0.5],[1,0.5]];portConstraint=eastwest;fontFamily=Ubuntu Mono;fontSource=https%3A%2F%2Ffonts.googleapis.com%2Fcss%3Ffamily%3DUbuntu%2BMono;fontSize=16;" vertex="1" parent="uqK8QcpsEyStqq74XiFP-96">
          <mxGeometry y="52.255557250976565" width="418" height="26" as="geometry" />
        </mxCell>
        <mxCell id="uqK8QcpsEyStqq74XiFP-99" value="-String sequenceOrder" style="text;strokeColor=none;fillColor=none;align=left;verticalAlign=top;spacingLeft=4;spacingRight=4;overflow=hidden;rotatable=0;points=[[0,0.5],[1,0.5]];portConstraint=eastwest;fontFamily=Ubuntu Mono;fontSource=https%3A%2F%2Ffonts.googleapis.com%2Fcss%3Ffamily%3DUbuntu%2BMono;fontSize=16;" vertex="1" parent="uqK8QcpsEyStqq74XiFP-96">
          <mxGeometry y="78.25555725097657" width="418" height="26" as="geometry" />
        </mxCell>
        <mxCell id="uqK8QcpsEyStqq74XiFP-100" style="line;strokeWidth=1;fillColor=none;align=left;verticalAlign=middle;spacingTop=-1;spacingLeft=3;spacingRight=3;rotatable=0;labelPosition=right;points=[];portConstraint=eastwest;strokeColor=inherit;fontFamily=Ubuntu Mono;fontSource=https%3A%2F%2Ffonts.googleapis.com%2Fcss%3Ffamily%3DUbuntu%2BMono;fontSize=16;" vertex="1" parent="uqK8QcpsEyStqq74XiFP-96">
          <mxGeometry y="104.25555725097657" width="418" height="8" as="geometry" />
        </mxCell>
        <mxCell id="uqK8QcpsEyStqq74XiFP-101" value="+void addQuestionGroup(QuestionGroup questionGroup)" style="text;strokeColor=none;fillColor=none;align=left;verticalAlign=top;spacingLeft=4;spacingRight=4;overflow=hidden;rotatable=0;points=[[0,0.5],[1,0.5]];portConstraint=eastwest;fontFamily=Ubuntu Mono;fontSource=https%3A%2F%2Ffonts.googleapis.com%2Fcss%3Ffamily%3DUbuntu%2BMono;fontSize=16;" vertex="1" parent="uqK8QcpsEyStqq74XiFP-96">
          <mxGeometry y="112.25555725097657" width="418" height="26" as="geometry" />
        </mxCell>
        <mxCell id="uqK8QcpsEyStqq74XiFP-102" value="+void editQuestionGroup(int groupID)" style="text;strokeColor=none;fillColor=none;align=left;verticalAlign=top;spacingLeft=4;spacingRight=4;overflow=hidden;rotatable=0;points=[[0,0.5],[1,0.5]];portConstraint=eastwest;fontFamily=Ubuntu Mono;fontSource=https%3A%2F%2Ffonts.googleapis.com%2Fcss%3Ffamily%3DUbuntu%2BMono;fontSize=16;" vertex="1" parent="uqK8QcpsEyStqq74XiFP-96">
          <mxGeometry y="138.25555725097655" width="418" height="26" as="geometry" />
        </mxCell>
        <mxCell id="uqK8QcpsEyStqq74XiFP-103" value="+String getModuleType()" style="text;strokeColor=none;fillColor=none;align=left;verticalAlign=top;spacingLeft=4;spacingRight=4;overflow=hidden;rotatable=0;points=[[0,0.5],[1,0.5]];portConstraint=eastwest;fontFamily=Ubuntu Mono;fontSource=https%3A%2F%2Ffonts.googleapis.com%2Fcss%3Ffamily%3DUbuntu%2BMono;fontSize=16;" vertex="1" parent="uqK8QcpsEyStqq74XiFP-96">
          <mxGeometry y="164.25555725097655" width="418" height="26" as="geometry" />
        </mxCell>
        <mxCell id="uqK8QcpsEyStqq74XiFP-104" value="+void setModuleType(String moduleType)" style="text;strokeColor=none;fillColor=none;align=left;verticalAlign=top;spacingLeft=4;spacingRight=4;overflow=hidden;rotatable=0;points=[[0,0.5],[1,0.5]];portConstraint=eastwest;fontFamily=Ubuntu Mono;fontSource=https%3A%2F%2Ffonts.googleapis.com%2Fcss%3Ffamily%3DUbuntu%2BMono;fontSize=16;" vertex="1" parent="uqK8QcpsEyStqq74XiFP-96">
          <mxGeometry y="190.25555725097655" width="418" height="26" as="geometry" />
        </mxCell>
        <mxCell id="uqK8QcpsEyStqq74XiFP-105" value="+String getReadingPassage()" style="text;strokeColor=none;fillColor=none;align=left;verticalAlign=top;spacingLeft=4;spacingRight=4;overflow=hidden;rotatable=0;points=[[0,0.5],[1,0.5]];portConstraint=eastwest;fontFamily=Ubuntu Mono;fontSource=https%3A%2F%2Ffonts.googleapis.com%2Fcss%3Ffamily%3DUbuntu%2BMono;fontSize=16;" vertex="1" parent="uqK8QcpsEyStqq74XiFP-96">
          <mxGeometry y="216.25555725097655" width="418" height="26" as="geometry" />
        </mxCell>
        <mxCell id="uqK8QcpsEyStqq74XiFP-106" value="+void setReadingPassage(String passage)" style="text;strokeColor=none;fillColor=none;align=left;verticalAlign=top;spacingLeft=4;spacingRight=4;overflow=hidden;rotatable=0;points=[[0,0.5],[1,0.5]];portConstraint=eastwest;fontFamily=Ubuntu Mono;fontSource=https%3A%2F%2Ffonts.googleapis.com%2Fcss%3Ffamily%3DUbuntu%2BMono;fontSize=16;" vertex="1" parent="uqK8QcpsEyStqq74XiFP-96">
          <mxGeometry y="242.25555725097655" width="418" height="26" as="geometry" />
        </mxCell>
        <mxCell id="uqK8QcpsEyStqq74XiFP-107" value="QuestionGroup" style="swimlane;fontStyle=1;align=center;verticalAlign=top;childLayout=stackLayout;horizontal=1;startSize=26.255557250976562;horizontalStack=0;resizeParent=1;resizeParentMax=0;resizeLast=0;collapsible=0;marginBottom=0;fontFamily=Ubuntu Mono;fontSource=https%3A%2F%2Ffonts.googleapis.com%2Fcss%3Ffamily%3DUbuntu%2BMono;fontSize=16;" vertex="1" parent="1">
          <mxGeometry x="4689" y="259" width="349" height="268.25555725097655" as="geometry" />
        </mxCell>
        <mxCell id="uqK8QcpsEyStqq74XiFP-108" value="-String groupCategory" style="text;strokeColor=none;fillColor=none;align=left;verticalAlign=top;spacingLeft=4;spacingRight=4;overflow=hidden;rotatable=0;points=[[0,0.5],[1,0.5]];portConstraint=eastwest;fontFamily=Ubuntu Mono;fontSource=https%3A%2F%2Ffonts.googleapis.com%2Fcss%3Ffamily%3DUbuntu%2BMono;fontSize=16;" vertex="1" parent="uqK8QcpsEyStqq74XiFP-107">
          <mxGeometry y="26.255557250976562" width="349" height="26" as="geometry" />
        </mxCell>
        <mxCell id="uqK8QcpsEyStqq74XiFP-109" value="-int answerLimit" style="text;strokeColor=none;fillColor=none;align=left;verticalAlign=top;spacingLeft=4;spacingRight=4;overflow=hidden;rotatable=0;points=[[0,0.5],[1,0.5]];portConstraint=eastwest;fontFamily=Ubuntu Mono;fontSource=https%3A%2F%2Ffonts.googleapis.com%2Fcss%3Ffamily%3DUbuntu%2BMono;fontSize=16;" vertex="1" parent="uqK8QcpsEyStqq74XiFP-107">
          <mxGeometry y="52.255557250976565" width="349" height="26" as="geometry" />
        </mxCell>
        <mxCell id="uqK8QcpsEyStqq74XiFP-110" value="-String instructionText" style="text;strokeColor=none;fillColor=none;align=left;verticalAlign=top;spacingLeft=4;spacingRight=4;overflow=hidden;rotatable=0;points=[[0,0.5],[1,0.5]];portConstraint=eastwest;fontFamily=Ubuntu Mono;fontSource=https%3A%2F%2Ffonts.googleapis.com%2Fcss%3Ffamily%3DUbuntu%2BMono;fontSize=16;" vertex="1" parent="uqK8QcpsEyStqq74XiFP-107">
          <mxGeometry y="78.25555725097657" width="349" height="26" as="geometry" />
        </mxCell>
        <mxCell id="uqK8QcpsEyStqq74XiFP-111" style="line;strokeWidth=1;fillColor=none;align=left;verticalAlign=middle;spacingTop=-1;spacingLeft=3;spacingRight=3;rotatable=0;labelPosition=right;points=[];portConstraint=eastwest;strokeColor=inherit;fontFamily=Ubuntu Mono;fontSource=https%3A%2F%2Ffonts.googleapis.com%2Fcss%3Ffamily%3DUbuntu%2BMono;fontSize=16;" vertex="1" parent="uqK8QcpsEyStqq74XiFP-107">
          <mxGeometry y="104.25555725097657" width="349" height="8" as="geometry" />
        </mxCell>
        <mxCell id="uqK8QcpsEyStqq74XiFP-112" value="+void addQuestion(Question question)" style="text;strokeColor=none;fillColor=none;align=left;verticalAlign=top;spacingLeft=4;spacingRight=4;overflow=hidden;rotatable=0;points=[[0,0.5],[1,0.5]];portConstraint=eastwest;fontFamily=Ubuntu Mono;fontSource=https%3A%2F%2Ffonts.googleapis.com%2Fcss%3Ffamily%3DUbuntu%2BMono;fontSize=16;" vertex="1" parent="uqK8QcpsEyStqq74XiFP-107">
          <mxGeometry y="112.25555725097657" width="349" height="26" as="geometry" />
        </mxCell>
        <mxCell id="uqK8QcpsEyStqq74XiFP-113" value="+void duplicateQuestionGroup(int groupID)" style="text;strokeColor=none;fillColor=none;align=left;verticalAlign=top;spacingLeft=4;spacingRight=4;overflow=hidden;rotatable=0;points=[[0,0.5],[1,0.5]];portConstraint=eastwest;fontFamily=Ubuntu Mono;fontSource=https%3A%2F%2Ffonts.googleapis.com%2Fcss%3Ffamily%3DUbuntu%2BMono;fontSize=16;" vertex="1" parent="uqK8QcpsEyStqq74XiFP-107">
          <mxGeometry y="138.25555725097655" width="349" height="26" as="geometry" />
        </mxCell>
        <mxCell id="uqK8QcpsEyStqq74XiFP-114" value="+String getGroupCategory()" style="text;strokeColor=none;fillColor=none;align=left;verticalAlign=top;spacingLeft=4;spacingRight=4;overflow=hidden;rotatable=0;points=[[0,0.5],[1,0.5]];portConstraint=eastwest;fontFamily=Ubuntu Mono;fontSource=https%3A%2F%2Ffonts.googleapis.com%2Fcss%3Ffamily%3DUbuntu%2BMono;fontSize=16;" vertex="1" parent="uqK8QcpsEyStqq74XiFP-107">
          <mxGeometry y="164.25555725097655" width="349" height="26" as="geometry" />
        </mxCell>
        <mxCell id="uqK8QcpsEyStqq74XiFP-115" value="+void setGroupCategory(String groupCategory)" style="text;strokeColor=none;fillColor=none;align=left;verticalAlign=top;spacingLeft=4;spacingRight=4;overflow=hidden;rotatable=0;points=[[0,0.5],[1,0.5]];portConstraint=eastwest;fontFamily=Ubuntu Mono;fontSource=https%3A%2F%2Ffonts.googleapis.com%2Fcss%3Ffamily%3DUbuntu%2BMono;fontSize=16;" vertex="1" parent="uqK8QcpsEyStqq74XiFP-107">
          <mxGeometry y="190.25555725097655" width="349" height="26" as="geometry" />
        </mxCell>
        <mxCell id="uqK8QcpsEyStqq74XiFP-116" value="+int getAnswerLimit()" style="text;strokeColor=none;fillColor=none;align=left;verticalAlign=top;spacingLeft=4;spacingRight=4;overflow=hidden;rotatable=0;points=[[0,0.5],[1,0.5]];portConstraint=eastwest;fontFamily=Ubuntu Mono;fontSource=https%3A%2F%2Ffonts.googleapis.com%2Fcss%3Ffamily%3DUbuntu%2BMono;fontSize=16;" vertex="1" parent="uqK8QcpsEyStqq74XiFP-107">
          <mxGeometry y="216.25555725097655" width="349" height="26" as="geometry" />
        </mxCell>
        <mxCell id="uqK8QcpsEyStqq74XiFP-117" value="+void setAnswerLimit(int answerLimit)" style="text;strokeColor=none;fillColor=none;align=left;verticalAlign=top;spacingLeft=4;spacingRight=4;overflow=hidden;rotatable=0;points=[[0,0.5],[1,0.5]];portConstraint=eastwest;fontFamily=Ubuntu Mono;fontSource=https%3A%2F%2Ffonts.googleapis.com%2Fcss%3Ffamily%3DUbuntu%2BMono;fontSize=16;" vertex="1" parent="uqK8QcpsEyStqq74XiFP-107">
          <mxGeometry y="242.25555725097655" width="349" height="26" as="geometry" />
        </mxCell>
        <mxCell id="uqK8QcpsEyStqq74XiFP-118" value="Question" style="swimlane;fontStyle=1;align=center;verticalAlign=top;childLayout=stackLayout;horizontal=1;startSize=25.694442749023438;horizontalStack=0;resizeParent=1;resizeParentMax=0;resizeLast=0;collapsible=0;marginBottom=0;fontFamily=Ubuntu Mono;fontSource=https%3A%2F%2Ffonts.googleapis.com%2Fcss%3Ffamily%3DUbuntu%2BMono;fontSize=16;" vertex="1" parent="1">
          <mxGeometry x="5136" y="236" width="304" height="319.69444274902344" as="geometry" />
        </mxCell>
        <mxCell id="uqK8QcpsEyStqq74XiFP-119" value="-String questionText" style="text;strokeColor=none;fillColor=none;align=left;verticalAlign=top;spacingLeft=4;spacingRight=4;overflow=hidden;rotatable=0;points=[[0,0.5],[1,0.5]];portConstraint=eastwest;fontFamily=Ubuntu Mono;fontSource=https%3A%2F%2Ffonts.googleapis.com%2Fcss%3Ffamily%3DUbuntu%2BMono;fontSize=16;" vertex="1" parent="uqK8QcpsEyStqq74XiFP-118">
          <mxGeometry y="25.694442749023438" width="304" height="26" as="geometry" />
        </mxCell>
        <mxCell id="uqK8QcpsEyStqq74XiFP-120" value="-String answerOptions" style="text;strokeColor=none;fillColor=none;align=left;verticalAlign=top;spacingLeft=4;spacingRight=4;overflow=hidden;rotatable=0;points=[[0,0.5],[1,0.5]];portConstraint=eastwest;fontFamily=Ubuntu Mono;fontSource=https%3A%2F%2Ffonts.googleapis.com%2Fcss%3Ffamily%3DUbuntu%2BMono;fontSize=16;" vertex="1" parent="uqK8QcpsEyStqq74XiFP-118">
          <mxGeometry y="51.69444274902344" width="304" height="26" as="geometry" />
        </mxCell>
        <mxCell id="uqK8QcpsEyStqq74XiFP-121" value="-String correctSolution" style="text;strokeColor=none;fillColor=none;align=left;verticalAlign=top;spacingLeft=4;spacingRight=4;overflow=hidden;rotatable=0;points=[[0,0.5],[1,0.5]];portConstraint=eastwest;fontFamily=Ubuntu Mono;fontSource=https%3A%2F%2Ffonts.googleapis.com%2Fcss%3Ffamily%3DUbuntu%2BMono;fontSize=16;" vertex="1" parent="uqK8QcpsEyStqq74XiFP-118">
          <mxGeometry y="77.69444274902344" width="304" height="26" as="geometry" />
        </mxCell>
        <mxCell id="uqK8QcpsEyStqq74XiFP-122" value="-int blankPosition" style="text;strokeColor=none;fillColor=none;align=left;verticalAlign=top;spacingLeft=4;spacingRight=4;overflow=hidden;rotatable=0;points=[[0,0.5],[1,0.5]];portConstraint=eastwest;fontFamily=Ubuntu Mono;fontSource=https%3A%2F%2Ffonts.googleapis.com%2Fcss%3Ffamily%3DUbuntu%2BMono;fontSize=16;" vertex="1" parent="uqK8QcpsEyStqq74XiFP-118">
          <mxGeometry y="103.69444274902344" width="304" height="26" as="geometry" />
        </mxCell>
        <mxCell id="uqK8QcpsEyStqq74XiFP-123" value="-String associatedImage" style="text;strokeColor=none;fillColor=none;align=left;verticalAlign=top;spacingLeft=4;spacingRight=4;overflow=hidden;rotatable=0;points=[[0,0.5],[1,0.5]];portConstraint=eastwest;fontFamily=Ubuntu Mono;fontSource=https%3A%2F%2Ffonts.googleapis.com%2Fcss%3Ffamily%3DUbuntu%2BMono;fontSize=16;" vertex="1" parent="uqK8QcpsEyStqq74XiFP-118">
          <mxGeometry y="129.69444274902344" width="304" height="26" as="geometry" />
        </mxCell>
        <mxCell id="uqK8QcpsEyStqq74XiFP-124" style="line;strokeWidth=1;fillColor=none;align=left;verticalAlign=middle;spacingTop=-1;spacingLeft=3;spacingRight=3;rotatable=0;labelPosition=right;points=[];portConstraint=eastwest;strokeColor=inherit;fontFamily=Ubuntu Mono;fontSource=https%3A%2F%2Ffonts.googleapis.com%2Fcss%3Ffamily%3DUbuntu%2BMono;fontSize=16;" vertex="1" parent="uqK8QcpsEyStqq74XiFP-118">
          <mxGeometry y="155.69444274902344" width="304" height="8" as="geometry" />
        </mxCell>
        <mxCell id="uqK8QcpsEyStqq74XiFP-125" value="+void submitAnswer(String answer)" style="text;strokeColor=none;fillColor=none;align=left;verticalAlign=top;spacingLeft=4;spacingRight=4;overflow=hidden;rotatable=0;points=[[0,0.5],[1,0.5]];portConstraint=eastwest;fontFamily=Ubuntu Mono;fontSource=https%3A%2F%2Ffonts.googleapis.com%2Fcss%3Ffamily%3DUbuntu%2BMono;fontSize=16;" vertex="1" parent="uqK8QcpsEyStqq74XiFP-118">
          <mxGeometry y="163.69444274902344" width="304" height="26" as="geometry" />
        </mxCell>
        <mxCell id="uqK8QcpsEyStqq74XiFP-126" value="+void manageAnswer(int answerID)" style="text;strokeColor=none;fillColor=none;align=left;verticalAlign=top;spacingLeft=4;spacingRight=4;overflow=hidden;rotatable=0;points=[[0,0.5],[1,0.5]];portConstraint=eastwest;fontFamily=Ubuntu Mono;fontSource=https%3A%2F%2Ffonts.googleapis.com%2Fcss%3Ffamily%3DUbuntu%2BMono;fontSize=16;" vertex="1" parent="uqK8QcpsEyStqq74XiFP-118">
          <mxGeometry y="189.69444274902344" width="304" height="26" as="geometry" />
        </mxCell>
        <mxCell id="uqK8QcpsEyStqq74XiFP-127" value="+String getQuestionText()" style="text;strokeColor=none;fillColor=none;align=left;verticalAlign=top;spacingLeft=4;spacingRight=4;overflow=hidden;rotatable=0;points=[[0,0.5],[1,0.5]];portConstraint=eastwest;fontFamily=Ubuntu Mono;fontSource=https%3A%2F%2Ffonts.googleapis.com%2Fcss%3Ffamily%3DUbuntu%2BMono;fontSize=16;" vertex="1" parent="uqK8QcpsEyStqq74XiFP-118">
          <mxGeometry y="215.69444274902344" width="304" height="26" as="geometry" />
        </mxCell>
        <mxCell id="uqK8QcpsEyStqq74XiFP-128" value="+void setQuestionText(String statement)" style="text;strokeColor=none;fillColor=none;align=left;verticalAlign=top;spacingLeft=4;spacingRight=4;overflow=hidden;rotatable=0;points=[[0,0.5],[1,0.5]];portConstraint=eastwest;fontFamily=Ubuntu Mono;fontSource=https%3A%2F%2Ffonts.googleapis.com%2Fcss%3Ffamily%3DUbuntu%2BMono;fontSize=16;" vertex="1" parent="uqK8QcpsEyStqq74XiFP-118">
          <mxGeometry y="241.69444274902344" width="304" height="26" as="geometry" />
        </mxCell>
        <mxCell id="uqK8QcpsEyStqq74XiFP-129" value="+String getAnswerOptions()" style="text;strokeColor=none;fillColor=none;align=left;verticalAlign=top;spacingLeft=4;spacingRight=4;overflow=hidden;rotatable=0;points=[[0,0.5],[1,0.5]];portConstraint=eastwest;fontFamily=Ubuntu Mono;fontSource=https%3A%2F%2Ffonts.googleapis.com%2Fcss%3Ffamily%3DUbuntu%2BMono;fontSize=16;" vertex="1" parent="uqK8QcpsEyStqq74XiFP-118">
          <mxGeometry y="267.69444274902344" width="304" height="26" as="geometry" />
        </mxCell>
        <mxCell id="uqK8QcpsEyStqq74XiFP-130" value="+void setAnswerOptions(String options)" style="text;strokeColor=none;fillColor=none;align=left;verticalAlign=top;spacingLeft=4;spacingRight=4;overflow=hidden;rotatable=0;points=[[0,0.5],[1,0.5]];portConstraint=eastwest;fontFamily=Ubuntu Mono;fontSource=https%3A%2F%2Ffonts.googleapis.com%2Fcss%3Ffamily%3DUbuntu%2BMono;fontSize=16;" vertex="1" parent="uqK8QcpsEyStqq74XiFP-118">
          <mxGeometry y="293.69444274902344" width="304" height="26" as="geometry" />
        </mxCell>
        <mxCell id="uqK8QcpsEyStqq74XiFP-131" value="Response" style="swimlane;fontStyle=1;align=center;verticalAlign=top;childLayout=stackLayout;horizontal=1;startSize=27.380953107561385;horizontalStack=0;resizeParent=1;resizeParentMax=0;resizeLast=0;collapsible=0;marginBottom=0;fontFamily=Ubuntu Mono;fontSource=https%3A%2F%2Ffonts.googleapis.com%2Fcss%3Ffamily%3DUbuntu%2BMono;fontSize=16;" vertex="1" parent="1">
          <mxGeometry x="1812" y="392" width="265" height="197.38095310756137" as="geometry" />
        </mxCell>
        <mxCell id="uqK8QcpsEyStqq74XiFP-132" value="-String answerText" style="text;strokeColor=none;fillColor=none;align=left;verticalAlign=top;spacingLeft=4;spacingRight=4;overflow=hidden;rotatable=0;points=[[0,0.5],[1,0.5]];portConstraint=eastwest;fontFamily=Ubuntu Mono;fontSource=https%3A%2F%2Ffonts.googleapis.com%2Fcss%3Ffamily%3DUbuntu%2BMono;fontSize=16;" vertex="1" parent="uqK8QcpsEyStqq74XiFP-131">
          <mxGeometry y="27.380953107561385" width="265" height="27" as="geometry" />
        </mxCell>
        <mxCell id="uqK8QcpsEyStqq74XiFP-133" value="-DateTime submissionDate" style="text;strokeColor=none;fillColor=none;align=left;verticalAlign=top;spacingLeft=4;spacingRight=4;overflow=hidden;rotatable=0;points=[[0,0.5],[1,0.5]];portConstraint=eastwest;fontFamily=Ubuntu Mono;fontSource=https%3A%2F%2Ffonts.googleapis.com%2Fcss%3Ffamily%3DUbuntu%2BMono;fontSize=16;" vertex="1" parent="uqK8QcpsEyStqq74XiFP-131">
          <mxGeometry y="54.38095310756138" width="265" height="27" as="geometry" />
        </mxCell>
        <mxCell id="uqK8QcpsEyStqq74XiFP-134" style="line;strokeWidth=1;fillColor=none;align=left;verticalAlign=middle;spacingTop=-1;spacingLeft=3;spacingRight=3;rotatable=0;labelPosition=right;points=[];portConstraint=eastwest;strokeColor=inherit;fontFamily=Ubuntu Mono;fontSource=https%3A%2F%2Ffonts.googleapis.com%2Fcss%3Ffamily%3DUbuntu%2BMono;fontSize=16;" vertex="1" parent="uqK8QcpsEyStqq74XiFP-131">
          <mxGeometry y="81.38095310756138" width="265" height="8" as="geometry" />
        </mxCell>
        <mxCell id="uqK8QcpsEyStqq74XiFP-135" value="+void submitResponse(int testID)" style="text;strokeColor=none;fillColor=none;align=left;verticalAlign=top;spacingLeft=4;spacingRight=4;overflow=hidden;rotatable=0;points=[[0,0.5],[1,0.5]];portConstraint=eastwest;fontFamily=Ubuntu Mono;fontSource=https%3A%2F%2Ffonts.googleapis.com%2Fcss%3Ffamily%3DUbuntu%2BMono;fontSize=16;" vertex="1" parent="uqK8QcpsEyStqq74XiFP-131">
          <mxGeometry y="89.38095310756138" width="265" height="27" as="geometry" />
        </mxCell>
        <mxCell id="uqK8QcpsEyStqq74XiFP-136" value="+void editResponse(int responseID)" style="text;strokeColor=none;fillColor=none;align=left;verticalAlign=top;spacingLeft=4;spacingRight=4;overflow=hidden;rotatable=0;points=[[0,0.5],[1,0.5]];portConstraint=eastwest;fontFamily=Ubuntu Mono;fontSource=https%3A%2F%2Ffonts.googleapis.com%2Fcss%3Ffamily%3DUbuntu%2BMono;fontSize=16;" vertex="1" parent="uqK8QcpsEyStqq74XiFP-131">
          <mxGeometry y="116.38095310756138" width="265" height="27" as="geometry" />
        </mxCell>
        <mxCell id="uqK8QcpsEyStqq74XiFP-137" value="+String getAnswerText()" style="text;strokeColor=none;fillColor=none;align=left;verticalAlign=top;spacingLeft=4;spacingRight=4;overflow=hidden;rotatable=0;points=[[0,0.5],[1,0.5]];portConstraint=eastwest;fontFamily=Ubuntu Mono;fontSource=https%3A%2F%2Ffonts.googleapis.com%2Fcss%3Ffamily%3DUbuntu%2BMono;fontSize=16;" vertex="1" parent="uqK8QcpsEyStqq74XiFP-131">
          <mxGeometry y="143.38095310756137" width="265" height="27" as="geometry" />
        </mxCell>
        <mxCell id="uqK8QcpsEyStqq74XiFP-138" value="+void setAnswerText(String text)" style="text;strokeColor=none;fillColor=none;align=left;verticalAlign=top;spacingLeft=4;spacingRight=4;overflow=hidden;rotatable=0;points=[[0,0.5],[1,0.5]];portConstraint=eastwest;fontFamily=Ubuntu Mono;fontSource=https%3A%2F%2Ffonts.googleapis.com%2Fcss%3Ffamily%3DUbuntu%2BMono;fontSize=16;" vertex="1" parent="uqK8QcpsEyStqq74XiFP-131">
          <mxGeometry y="170.38095310756137" width="265" height="27" as="geometry" />
        </mxCell>
        <mxCell id="uqK8QcpsEyStqq74XiFP-139" value="Evaluation" style="swimlane;fontStyle=1;align=center;verticalAlign=top;childLayout=stackLayout;horizontal=1;startSize=25.94949618252841;horizontalStack=0;resizeParent=1;resizeParentMax=0;resizeLast=0;collapsible=0;marginBottom=0;fontFamily=Ubuntu Mono;fontSource=https%3A%2F%2Ffonts.googleapis.com%2Fcss%3Ffamily%3DUbuntu%2BMono;fontSize=16;" vertex="1" parent="1">
          <mxGeometry x="2246" y="345" width="420" height="293.9494961825284" as="geometry" />
        </mxCell>
        <mxCell id="uqK8QcpsEyStqq74XiFP-140" value="-int marksAwarded" style="text;strokeColor=none;fillColor=none;align=left;verticalAlign=top;spacingLeft=4;spacingRight=4;overflow=hidden;rotatable=0;points=[[0,0.5],[1,0.5]];portConstraint=eastwest;fontFamily=Ubuntu Mono;fontSource=https%3A%2F%2Ffonts.googleapis.com%2Fcss%3Ffamily%3DUbuntu%2BMono;fontSize=16;" vertex="1" parent="uqK8QcpsEyStqq74XiFP-139">
          <mxGeometry y="25.94949618252841" width="420" height="26" as="geometry" />
        </mxCell>
        <mxCell id="uqK8QcpsEyStqq74XiFP-141" value="-String feedback" style="text;strokeColor=none;fillColor=none;align=left;verticalAlign=top;spacingLeft=4;spacingRight=4;overflow=hidden;rotatable=0;points=[[0,0.5],[1,0.5]];portConstraint=eastwest;fontFamily=Ubuntu Mono;fontSource=https%3A%2F%2Ffonts.googleapis.com%2Fcss%3Ffamily%3DUbuntu%2BMono;fontSize=16;" vertex="1" parent="uqK8QcpsEyStqq74XiFP-139">
          <mxGeometry y="51.94949618252841" width="420" height="26" as="geometry" />
        </mxCell>
        <mxCell id="uqK8QcpsEyStqq74XiFP-142" value="-Teacher evaluator" style="text;strokeColor=none;fillColor=none;align=left;verticalAlign=top;spacingLeft=4;spacingRight=4;overflow=hidden;rotatable=0;points=[[0,0.5],[1,0.5]];portConstraint=eastwest;fontFamily=Ubuntu Mono;fontSource=https%3A%2F%2Ffonts.googleapis.com%2Fcss%3Ffamily%3DUbuntu%2BMono;fontSize=16;" vertex="1" parent="uqK8QcpsEyStqq74XiFP-139">
          <mxGeometry y="77.9494961825284" width="420" height="26" as="geometry" />
        </mxCell>
        <mxCell id="uqK8QcpsEyStqq74XiFP-143" value="-DateTime evaluationDate" style="text;strokeColor=none;fillColor=none;align=left;verticalAlign=top;spacingLeft=4;spacingRight=4;overflow=hidden;rotatable=0;points=[[0,0.5],[1,0.5]];portConstraint=eastwest;fontFamily=Ubuntu Mono;fontSource=https%3A%2F%2Ffonts.googleapis.com%2Fcss%3Ffamily%3DUbuntu%2BMono;fontSize=16;" vertex="1" parent="uqK8QcpsEyStqq74XiFP-139">
          <mxGeometry y="103.9494961825284" width="420" height="26" as="geometry" />
        </mxCell>
        <mxCell id="uqK8QcpsEyStqq74XiFP-144" style="line;strokeWidth=1;fillColor=none;align=left;verticalAlign=middle;spacingTop=-1;spacingLeft=3;spacingRight=3;rotatable=0;labelPosition=right;points=[];portConstraint=eastwest;strokeColor=inherit;fontFamily=Ubuntu Mono;fontSource=https%3A%2F%2Ffonts.googleapis.com%2Fcss%3Ffamily%3DUbuntu%2BMono;fontSize=16;" vertex="1" parent="uqK8QcpsEyStqq74XiFP-139">
          <mxGeometry y="129.9494961825284" width="420" height="8" as="geometry" />
        </mxCell>
        <mxCell id="uqK8QcpsEyStqq74XiFP-145" value="+void markResponse(Response response, int marks)" style="text;strokeColor=none;fillColor=none;align=left;verticalAlign=top;spacingLeft=4;spacingRight=4;overflow=hidden;rotatable=0;points=[[0,0.5],[1,0.5]];portConstraint=eastwest;fontFamily=Ubuntu Mono;fontSource=https%3A%2F%2Ffonts.googleapis.com%2Fcss%3Ffamily%3DUbuntu%2BMono;fontSize=16;" vertex="1" parent="uqK8QcpsEyStqq74XiFP-139">
          <mxGeometry y="137.9494961825284" width="420" height="26" as="geometry" />
        </mxCell>
        <mxCell id="uqK8QcpsEyStqq74XiFP-146" value="+void addFeedback(Response response, String feedback)" style="text;strokeColor=none;fillColor=none;align=left;verticalAlign=top;spacingLeft=4;spacingRight=4;overflow=hidden;rotatable=0;points=[[0,0.5],[1,0.5]];portConstraint=eastwest;fontFamily=Ubuntu Mono;fontSource=https%3A%2F%2Ffonts.googleapis.com%2Fcss%3Ffamily%3DUbuntu%2BMono;fontSize=16;" vertex="1" parent="uqK8QcpsEyStqq74XiFP-139">
          <mxGeometry y="163.9494961825284" width="420" height="26" as="geometry" />
        </mxCell>
        <mxCell id="uqK8QcpsEyStqq74XiFP-147" value="+int getMarksAwarded()" style="text;strokeColor=none;fillColor=none;align=left;verticalAlign=top;spacingLeft=4;spacingRight=4;overflow=hidden;rotatable=0;points=[[0,0.5],[1,0.5]];portConstraint=eastwest;fontFamily=Ubuntu Mono;fontSource=https%3A%2F%2Ffonts.googleapis.com%2Fcss%3Ffamily%3DUbuntu%2BMono;fontSize=16;" vertex="1" parent="uqK8QcpsEyStqq74XiFP-139">
          <mxGeometry y="189.9494961825284" width="420" height="26" as="geometry" />
        </mxCell>
        <mxCell id="uqK8QcpsEyStqq74XiFP-148" value="+void setMarksAwarded(int marks)" style="text;strokeColor=none;fillColor=none;align=left;verticalAlign=top;spacingLeft=4;spacingRight=4;overflow=hidden;rotatable=0;points=[[0,0.5],[1,0.5]];portConstraint=eastwest;fontFamily=Ubuntu Mono;fontSource=https%3A%2F%2Ffonts.googleapis.com%2Fcss%3Ffamily%3DUbuntu%2BMono;fontSize=16;" vertex="1" parent="uqK8QcpsEyStqq74XiFP-139">
          <mxGeometry y="215.9494961825284" width="420" height="26" as="geometry" />
        </mxCell>
        <mxCell id="uqK8QcpsEyStqq74XiFP-149" value="+String getFeedback()" style="text;strokeColor=none;fillColor=none;align=left;verticalAlign=top;spacingLeft=4;spacingRight=4;overflow=hidden;rotatable=0;points=[[0,0.5],[1,0.5]];portConstraint=eastwest;fontFamily=Ubuntu Mono;fontSource=https%3A%2F%2Ffonts.googleapis.com%2Fcss%3Ffamily%3DUbuntu%2BMono;fontSize=16;" vertex="1" parent="uqK8QcpsEyStqq74XiFP-139">
          <mxGeometry y="241.9494961825284" width="420" height="26" as="geometry" />
        </mxCell>
        <mxCell id="uqK8QcpsEyStqq74XiFP-150" value="+void setFeedback(String feedback)" style="text;strokeColor=none;fillColor=none;align=left;verticalAlign=top;spacingLeft=4;spacingRight=4;overflow=hidden;rotatable=0;points=[[0,0.5],[1,0.5]];portConstraint=eastwest;fontFamily=Ubuntu Mono;fontSource=https%3A%2F%2Ffonts.googleapis.com%2Fcss%3Ffamily%3DUbuntu%2BMono;fontSize=16;" vertex="1" parent="uqK8QcpsEyStqq74XiFP-139">
          <mxGeometry y="267.9494961825284" width="420" height="26" as="geometry" />
        </mxCell>
        <mxCell id="uqK8QcpsEyStqq74XiFP-151" value="Subscription" style="swimlane;fontStyle=1;align=center;verticalAlign=top;childLayout=stackLayout;horizontal=1;startSize=25.56410334660457;horizontalStack=0;resizeParent=1;resizeParentMax=0;resizeLast=0;collapsible=0;marginBottom=0;fontFamily=Ubuntu Mono;fontSource=https%3A%2F%2Ffonts.googleapis.com%2Fcss%3Ffamily%3DUbuntu%2BMono;fontSize=16;" vertex="1" parent="1">
          <mxGeometry x="1812" y="665" width="265" height="345.56410334660455" as="geometry" />
        </mxCell>
        <mxCell id="uqK8QcpsEyStqq74XiFP-152" value="-Date startDate" style="text;strokeColor=none;fillColor=none;align=left;verticalAlign=top;spacingLeft=4;spacingRight=4;overflow=hidden;rotatable=0;points=[[0,0.5],[1,0.5]];portConstraint=eastwest;fontFamily=Ubuntu Mono;fontSource=https%3A%2F%2Ffonts.googleapis.com%2Fcss%3Ffamily%3DUbuntu%2BMono;fontSize=16;" vertex="1" parent="uqK8QcpsEyStqq74XiFP-151">
          <mxGeometry y="25.56410334660457" width="265" height="26" as="geometry" />
        </mxCell>
        <mxCell id="uqK8QcpsEyStqq74XiFP-153" value="-Date endDate" style="text;strokeColor=none;fillColor=none;align=left;verticalAlign=top;spacingLeft=4;spacingRight=4;overflow=hidden;rotatable=0;points=[[0,0.5],[1,0.5]];portConstraint=eastwest;fontFamily=Ubuntu Mono;fontSource=https%3A%2F%2Ffonts.googleapis.com%2Fcss%3Ffamily%3DUbuntu%2BMono;fontSize=16;" vertex="1" parent="uqK8QcpsEyStqq74XiFP-151">
          <mxGeometry y="51.56410334660457" width="265" height="26" as="geometry" />
        </mxCell>
        <mxCell id="uqK8QcpsEyStqq74XiFP-154" value="-String subscriptionType" style="text;strokeColor=none;fillColor=none;align=left;verticalAlign=top;spacingLeft=4;spacingRight=4;overflow=hidden;rotatable=0;points=[[0,0.5],[1,0.5]];portConstraint=eastwest;fontFamily=Ubuntu Mono;fontSource=https%3A%2F%2Ffonts.googleapis.com%2Fcss%3Ffamily%3DUbuntu%2BMono;fontSize=16;" vertex="1" parent="uqK8QcpsEyStqq74XiFP-151">
          <mxGeometry y="77.56410334660457" width="265" height="26" as="geometry" />
        </mxCell>
        <mxCell id="uqK8QcpsEyStqq74XiFP-155" value="-double costAmount" style="text;strokeColor=none;fillColor=none;align=left;verticalAlign=top;spacingLeft=4;spacingRight=4;overflow=hidden;rotatable=0;points=[[0,0.5],[1,0.5]];portConstraint=eastwest;fontFamily=Ubuntu Mono;fontSource=https%3A%2F%2Ffonts.googleapis.com%2Fcss%3Ffamily%3DUbuntu%2BMono;fontSize=16;" vertex="1" parent="uqK8QcpsEyStqq74XiFP-151">
          <mxGeometry y="103.56410334660457" width="265" height="26" as="geometry" />
        </mxCell>
        <mxCell id="uqK8QcpsEyStqq74XiFP-156" value="-String subscriptionStatus" style="text;strokeColor=none;fillColor=none;align=left;verticalAlign=top;spacingLeft=4;spacingRight=4;overflow=hidden;rotatable=0;points=[[0,0.5],[1,0.5]];portConstraint=eastwest;fontFamily=Ubuntu Mono;fontSource=https%3A%2F%2Ffonts.googleapis.com%2Fcss%3Ffamily%3DUbuntu%2BMono;fontSize=16;" vertex="1" parent="uqK8QcpsEyStqq74XiFP-151">
          <mxGeometry y="129.56410334660455" width="265" height="26" as="geometry" />
        </mxCell>
        <mxCell id="uqK8QcpsEyStqq74XiFP-157" style="line;strokeWidth=1;fillColor=none;align=left;verticalAlign=middle;spacingTop=-1;spacingLeft=3;spacingRight=3;rotatable=0;labelPosition=right;points=[];portConstraint=eastwest;strokeColor=inherit;fontFamily=Ubuntu Mono;fontSource=https%3A%2F%2Ffonts.googleapis.com%2Fcss%3Ffamily%3DUbuntu%2BMono;fontSize=16;" vertex="1" parent="uqK8QcpsEyStqq74XiFP-151">
          <mxGeometry y="155.56410334660455" width="265" height="8" as="geometry" />
        </mxCell>
        <mxCell id="uqK8QcpsEyStqq74XiFP-158" value="+void subscribe(int studentID)" style="text;strokeColor=none;fillColor=none;align=left;verticalAlign=top;spacingLeft=4;spacingRight=4;overflow=hidden;rotatable=0;points=[[0,0.5],[1,0.5]];portConstraint=eastwest;fontFamily=Ubuntu Mono;fontSource=https%3A%2F%2Ffonts.googleapis.com%2Fcss%3Ffamily%3DUbuntu%2BMono;fontSize=16;" vertex="1" parent="uqK8QcpsEyStqq74XiFP-151">
          <mxGeometry y="163.56410334660455" width="265" height="26" as="geometry" />
        </mxCell>
        <mxCell id="uqK8QcpsEyStqq74XiFP-159" value="+void renew(int subscriptionID)" style="text;strokeColor=none;fillColor=none;align=left;verticalAlign=top;spacingLeft=4;spacingRight=4;overflow=hidden;rotatable=0;points=[[0,0.5],[1,0.5]];portConstraint=eastwest;fontFamily=Ubuntu Mono;fontSource=https%3A%2F%2Ffonts.googleapis.com%2Fcss%3Ffamily%3DUbuntu%2BMono;fontSize=16;" vertex="1" parent="uqK8QcpsEyStqq74XiFP-151">
          <mxGeometry y="189.56410334660455" width="265" height="26" as="geometry" />
        </mxCell>
        <mxCell id="uqK8QcpsEyStqq74XiFP-160" value="+void cancel(int subscriptionID)" style="text;strokeColor=none;fillColor=none;align=left;verticalAlign=top;spacingLeft=4;spacingRight=4;overflow=hidden;rotatable=0;points=[[0,0.5],[1,0.5]];portConstraint=eastwest;fontFamily=Ubuntu Mono;fontSource=https%3A%2F%2Ffonts.googleapis.com%2Fcss%3Ffamily%3DUbuntu%2BMono;fontSize=16;" vertex="1" parent="uqK8QcpsEyStqq74XiFP-151">
          <mxGeometry y="215.56410334660455" width="265" height="26" as="geometry" />
        </mxCell>
        <mxCell id="uqK8QcpsEyStqq74XiFP-161" value="+Date getStartDate()" style="text;strokeColor=none;fillColor=none;align=left;verticalAlign=top;spacingLeft=4;spacingRight=4;overflow=hidden;rotatable=0;points=[[0,0.5],[1,0.5]];portConstraint=eastwest;fontFamily=Ubuntu Mono;fontSource=https%3A%2F%2Ffonts.googleapis.com%2Fcss%3Ffamily%3DUbuntu%2BMono;fontSize=16;" vertex="1" parent="uqK8QcpsEyStqq74XiFP-151">
          <mxGeometry y="241.56410334660455" width="265" height="26" as="geometry" />
        </mxCell>
        <mxCell id="uqK8QcpsEyStqq74XiFP-162" value="+void setStartDate(Date startDate)" style="text;strokeColor=none;fillColor=none;align=left;verticalAlign=top;spacingLeft=4;spacingRight=4;overflow=hidden;rotatable=0;points=[[0,0.5],[1,0.5]];portConstraint=eastwest;fontFamily=Ubuntu Mono;fontSource=https%3A%2F%2Ffonts.googleapis.com%2Fcss%3Ffamily%3DUbuntu%2BMono;fontSize=16;" vertex="1" parent="uqK8QcpsEyStqq74XiFP-151">
          <mxGeometry y="267.56410334660455" width="265" height="26" as="geometry" />
        </mxCell>
        <mxCell id="uqK8QcpsEyStqq74XiFP-163" value="+Date getEndDate()" style="text;strokeColor=none;fillColor=none;align=left;verticalAlign=top;spacingLeft=4;spacingRight=4;overflow=hidden;rotatable=0;points=[[0,0.5],[1,0.5]];portConstraint=eastwest;fontFamily=Ubuntu Mono;fontSource=https%3A%2F%2Ffonts.googleapis.com%2Fcss%3Ffamily%3DUbuntu%2BMono;fontSize=16;" vertex="1" parent="uqK8QcpsEyStqq74XiFP-151">
          <mxGeometry y="293.56410334660455" width="265" height="26" as="geometry" />
        </mxCell>
        <mxCell id="uqK8QcpsEyStqq74XiFP-164" value="+void setEndDate(Date endDate)" style="text;strokeColor=none;fillColor=none;align=left;verticalAlign=top;spacingLeft=4;spacingRight=4;overflow=hidden;rotatable=0;points=[[0,0.5],[1,0.5]];portConstraint=eastwest;fontFamily=Ubuntu Mono;fontSource=https%3A%2F%2Ffonts.googleapis.com%2Fcss%3Ffamily%3DUbuntu%2BMono;fontSize=16;" vertex="1" parent="uqK8QcpsEyStqq74XiFP-151">
          <mxGeometry y="319.56410334660455" width="265" height="26" as="geometry" />
        </mxCell>
        <mxCell id="uqK8QcpsEyStqq74XiFP-165" value="Payment" style="swimlane;fontStyle=1;align=center;verticalAlign=top;childLayout=stackLayout;horizontal=1;startSize=25.94949618252841;horizontalStack=0;resizeParent=1;resizeParentMax=0;resizeLast=0;collapsible=0;marginBottom=0;fontFamily=Ubuntu Mono;fontSource=https%3A%2F%2Ffonts.googleapis.com%2Fcss%3Ffamily%3DUbuntu%2BMono;fontSize=16;" vertex="1" parent="1">
          <mxGeometry x="2298" y="688" width="315" height="293.9494961825284" as="geometry" />
        </mxCell>
        <mxCell id="uqK8QcpsEyStqq74XiFP-166" value="-double paymentAmount" style="text;strokeColor=none;fillColor=none;align=left;verticalAlign=top;spacingLeft=4;spacingRight=4;overflow=hidden;rotatable=0;points=[[0,0.5],[1,0.5]];portConstraint=eastwest;fontFamily=Ubuntu Mono;fontSource=https%3A%2F%2Ffonts.googleapis.com%2Fcss%3Ffamily%3DUbuntu%2BMono;fontSize=16;" vertex="1" parent="uqK8QcpsEyStqq74XiFP-165">
          <mxGeometry y="25.94949618252841" width="315" height="26" as="geometry" />
        </mxCell>
        <mxCell id="uqK8QcpsEyStqq74XiFP-167" value="-String paymentMethod" style="text;strokeColor=none;fillColor=none;align=left;verticalAlign=top;spacingLeft=4;spacingRight=4;overflow=hidden;rotatable=0;points=[[0,0.5],[1,0.5]];portConstraint=eastwest;fontFamily=Ubuntu Mono;fontSource=https%3A%2F%2Ffonts.googleapis.com%2Fcss%3Ffamily%3DUbuntu%2BMono;fontSize=16;" vertex="1" parent="uqK8QcpsEyStqq74XiFP-165">
          <mxGeometry y="51.94949618252841" width="315" height="26" as="geometry" />
        </mxCell>
        <mxCell id="uqK8QcpsEyStqq74XiFP-168" value="-Date transactionDate" style="text;strokeColor=none;fillColor=none;align=left;verticalAlign=top;spacingLeft=4;spacingRight=4;overflow=hidden;rotatable=0;points=[[0,0.5],[1,0.5]];portConstraint=eastwest;fontFamily=Ubuntu Mono;fontSource=https%3A%2F%2Ffonts.googleapis.com%2Fcss%3Ffamily%3DUbuntu%2BMono;fontSize=16;" vertex="1" parent="uqK8QcpsEyStqq74XiFP-165">
          <mxGeometry y="77.9494961825284" width="315" height="26" as="geometry" />
        </mxCell>
        <mxCell id="uqK8QcpsEyStqq74XiFP-169" value="-String accountDetails" style="text;strokeColor=none;fillColor=none;align=left;verticalAlign=top;spacingLeft=4;spacingRight=4;overflow=hidden;rotatable=0;points=[[0,0.5],[1,0.5]];portConstraint=eastwest;fontFamily=Ubuntu Mono;fontSource=https%3A%2F%2Ffonts.googleapis.com%2Fcss%3Ffamily%3DUbuntu%2BMono;fontSize=16;" vertex="1" parent="uqK8QcpsEyStqq74XiFP-165">
          <mxGeometry y="103.9494961825284" width="315" height="26" as="geometry" />
        </mxCell>
        <mxCell id="uqK8QcpsEyStqq74XiFP-170" style="line;strokeWidth=1;fillColor=none;align=left;verticalAlign=middle;spacingTop=-1;spacingLeft=3;spacingRight=3;rotatable=0;labelPosition=right;points=[];portConstraint=eastwest;strokeColor=inherit;fontFamily=Ubuntu Mono;fontSource=https%3A%2F%2Ffonts.googleapis.com%2Fcss%3Ffamily%3DUbuntu%2BMono;fontSize=16;" vertex="1" parent="uqK8QcpsEyStqq74XiFP-165">
          <mxGeometry y="129.9494961825284" width="315" height="8" as="geometry" />
        </mxCell>
        <mxCell id="uqK8QcpsEyStqq74XiFP-171" value="+void processPayment(double amount)" style="text;strokeColor=none;fillColor=none;align=left;verticalAlign=top;spacingLeft=4;spacingRight=4;overflow=hidden;rotatable=0;points=[[0,0.5],[1,0.5]];portConstraint=eastwest;fontFamily=Ubuntu Mono;fontSource=https%3A%2F%2Ffonts.googleapis.com%2Fcss%3Ffamily%3DUbuntu%2BMono;fontSize=16;" vertex="1" parent="uqK8QcpsEyStqq74XiFP-165">
          <mxGeometry y="137.9494961825284" width="315" height="26" as="geometry" />
        </mxCell>
        <mxCell id="uqK8QcpsEyStqq74XiFP-172" value="+void viewTransactionHistory(int userID)" style="text;strokeColor=none;fillColor=none;align=left;verticalAlign=top;spacingLeft=4;spacingRight=4;overflow=hidden;rotatable=0;points=[[0,0.5],[1,0.5]];portConstraint=eastwest;fontFamily=Ubuntu Mono;fontSource=https%3A%2F%2Ffonts.googleapis.com%2Fcss%3Ffamily%3DUbuntu%2BMono;fontSize=16;" vertex="1" parent="uqK8QcpsEyStqq74XiFP-165">
          <mxGeometry y="163.9494961825284" width="315" height="26" as="geometry" />
        </mxCell>
        <mxCell id="uqK8QcpsEyStqq74XiFP-173" value="+double getPaymentAmount()" style="text;strokeColor=none;fillColor=none;align=left;verticalAlign=top;spacingLeft=4;spacingRight=4;overflow=hidden;rotatable=0;points=[[0,0.5],[1,0.5]];portConstraint=eastwest;fontFamily=Ubuntu Mono;fontSource=https%3A%2F%2Ffonts.googleapis.com%2Fcss%3Ffamily%3DUbuntu%2BMono;fontSize=16;" vertex="1" parent="uqK8QcpsEyStqq74XiFP-165">
          <mxGeometry y="189.9494961825284" width="315" height="26" as="geometry" />
        </mxCell>
        <mxCell id="uqK8QcpsEyStqq74XiFP-174" value="+void setPaymentAmount(double amount)" style="text;strokeColor=none;fillColor=none;align=left;verticalAlign=top;spacingLeft=4;spacingRight=4;overflow=hidden;rotatable=0;points=[[0,0.5],[1,0.5]];portConstraint=eastwest;fontFamily=Ubuntu Mono;fontSource=https%3A%2F%2Ffonts.googleapis.com%2Fcss%3Ffamily%3DUbuntu%2BMono;fontSize=16;" vertex="1" parent="uqK8QcpsEyStqq74XiFP-165">
          <mxGeometry y="215.9494961825284" width="315" height="26" as="geometry" />
        </mxCell>
        <mxCell id="uqK8QcpsEyStqq74XiFP-175" value="+String getPaymentMethod()" style="text;strokeColor=none;fillColor=none;align=left;verticalAlign=top;spacingLeft=4;spacingRight=4;overflow=hidden;rotatable=0;points=[[0,0.5],[1,0.5]];portConstraint=eastwest;fontFamily=Ubuntu Mono;fontSource=https%3A%2F%2Ffonts.googleapis.com%2Fcss%3Ffamily%3DUbuntu%2BMono;fontSize=16;" vertex="1" parent="uqK8QcpsEyStqq74XiFP-165">
          <mxGeometry y="241.9494961825284" width="315" height="26" as="geometry" />
        </mxCell>
        <mxCell id="uqK8QcpsEyStqq74XiFP-176" value="+void setPaymentMethod(String method)" style="text;strokeColor=none;fillColor=none;align=left;verticalAlign=top;spacingLeft=4;spacingRight=4;overflow=hidden;rotatable=0;points=[[0,0.5],[1,0.5]];portConstraint=eastwest;fontFamily=Ubuntu Mono;fontSource=https%3A%2F%2Ffonts.googleapis.com%2Fcss%3Ffamily%3DUbuntu%2BMono;fontSize=16;" vertex="1" parent="uqK8QcpsEyStqq74XiFP-165">
          <mxGeometry y="267.9494961825284" width="315" height="26" as="geometry" />
        </mxCell>
        <mxCell id="uqK8QcpsEyStqq74XiFP-177" value="" style="curved=1;startArrow=block;startSize=16;startFill=0;endArrow=none;exitX=1;exitY=0.45;entryX=0.25;entryY=0;rounded=0;fontFamily=Ubuntu Mono;fontSource=https%3A%2F%2Ffonts.googleapis.com%2Fcss%3Ffamily%3DUbuntu%2BMono;fontSize=16;" edge="1" parent="1" source="uqK8QcpsEyStqq74XiFP-1" target="uqK8QcpsEyStqq74XiFP-15">
          <mxGeometry relative="1" as="geometry">
            <Array as="points">
              <mxPoint x="433" y="248" />
              <mxPoint x="1295" y="248" />
            </Array>
          </mxGeometry>
        </mxCell>
        <mxCell id="uqK8QcpsEyStqq74XiFP-178" value="" style="curved=1;startArrow=block;startSize=16;startFill=0;endArrow=none;exitX=1;exitY=0.5;entryX=0.29;entryY=0;rounded=0;fontFamily=Ubuntu Mono;fontSource=https%3A%2F%2Ffonts.googleapis.com%2Fcss%3Ffamily%3DUbuntu%2BMono;fontSize=16;" edge="1" parent="1" source="uqK8QcpsEyStqq74XiFP-1" target="uqK8QcpsEyStqq74XiFP-28">
          <mxGeometry relative="1" as="geometry">
            <Array as="points">
              <mxPoint x="433" y="268" />
              <mxPoint x="2726" y="268" />
            </Array>
          </mxGeometry>
        </mxCell>
        <mxCell id="uqK8QcpsEyStqq74XiFP-179" value="" style="curved=1;startArrow=block;startSize=16;startFill=0;endArrow=none;exitX=0.62;exitY=1;entryX=0;entryY=0.5;rounded=0;fontFamily=Ubuntu Mono;fontSource=https%3A%2F%2Ffonts.googleapis.com%2Fcss%3Ffamily%3DUbuntu%2BMono;fontSize=16;" edge="1" parent="1" source="uqK8QcpsEyStqq74XiFP-1" target="uqK8QcpsEyStqq74XiFP-41">
          <mxGeometry relative="1" as="geometry">
            <Array as="points">
              <mxPoint x="433" y="1099" />
            </Array>
          </mxGeometry>
        </mxCell>
        <mxCell id="uqK8QcpsEyStqq74XiFP-180" value="&quot;takes&quot;" style="curved=1;startArrow=none;endArrow=open;endSize=12;exitX=0.79;exitY=0;entryX=0;entryY=0.32;rounded=0;fontFamily=Ubuntu Mono;fontSource=https%3A%2F%2Ffonts.googleapis.com%2Fcss%3Ffamily%3DUbuntu%2BMono;fontSize=16;" edge="1" parent="1" source="uqK8QcpsEyStqq74XiFP-15" target="uqK8QcpsEyStqq74XiFP-69">
          <mxGeometry relative="1" as="geometry">
            <Array as="points">
              <mxPoint x="1754" y="299" />
              <mxPoint x="3177" y="299" />
            </Array>
          </mxGeometry>
        </mxCell>
        <mxCell id="uqK8QcpsEyStqq74XiFP-181" value="&quot;submits&quot;" style="curved=1;startArrow=none;endArrow=open;endSize=12;exitX=1;exitY=0.1;entryX=0;entryY=0.5;rounded=0;fontFamily=Ubuntu Mono;fontSource=https%3A%2F%2Ffonts.googleapis.com%2Fcss%3Ffamily%3DUbuntu%2BMono;fontSize=16;" edge="1" parent="1" source="uqK8QcpsEyStqq74XiFP-15" target="uqK8QcpsEyStqq74XiFP-131">
          <mxGeometry relative="1" as="geometry">
            <Array as="points">
              <mxPoint x="1754" y="491" />
            </Array>
          </mxGeometry>
        </mxCell>
        <mxCell id="uqK8QcpsEyStqq74XiFP-182" value="&quot;creates&quot;" style="curved=1;startArrow=none;endArrow=open;endSize=12;exitX=1;exitY=0.5;entryX=0.16;entryY=1;rounded=0;fontFamily=Ubuntu Mono;fontSource=https%3A%2F%2Ffonts.googleapis.com%2Fcss%3Ffamily%3DUbuntu%2BMono;fontSize=16;" edge="1" parent="1" source="uqK8QcpsEyStqq74XiFP-28" target="uqK8QcpsEyStqq74XiFP-69">
          <mxGeometry relative="1" as="geometry">
            <Array as="points">
              <mxPoint x="3177" y="780" />
            </Array>
          </mxGeometry>
        </mxCell>
        <mxCell id="uqK8QcpsEyStqq74XiFP-183" value="&quot;provides&quot;" style="curved=1;startArrow=none;endArrow=open;endSize=12;exitX=0;exitY=0.43;entryX=0.86;entryY=1;rounded=0;fontFamily=Ubuntu Mono;fontSource=https%3A%2F%2Ffonts.googleapis.com%2Fcss%3Ffamily%3DUbuntu%2BMono;fontSize=16;" edge="1" parent="1" source="uqK8QcpsEyStqq74XiFP-28" target="uqK8QcpsEyStqq74XiFP-139">
          <mxGeometry relative="1" as="geometry">
            <Array as="points">
              <mxPoint x="2726" y="751" />
            </Array>
          </mxGeometry>
        </mxCell>
        <mxCell id="uqK8QcpsEyStqq74XiFP-184" value="&quot;assists&quot;" style="curved=1;startArrow=none;endArrow=open;endSize=12;exitX=0.08;exitY=1;entryX=0.78;entryY=1;rounded=0;fontFamily=Ubuntu Mono;fontSource=https%3A%2F%2Ffonts.googleapis.com%2Fcss%3Ffamily%3DUbuntu%2BMono;fontSize=16;" edge="1" parent="1" source="uqK8QcpsEyStqq74XiFP-28" target="uqK8QcpsEyStqq74XiFP-15">
          <mxGeometry relative="1" as="geometry">
            <Array as="points">
              <mxPoint x="2726" y="1040" />
              <mxPoint x="1754" y="1040" />
            </Array>
          </mxGeometry>
        </mxCell>
        <mxCell id="uqK8QcpsEyStqq74XiFP-185" value="&quot;oversees&quot;" style="curved=1;startArrow=none;endArrow=open;endSize=12;exitX=1;exitY=0.5;entryX=0;entryY=0.5;rounded=0;fontFamily=Ubuntu Mono;fontSource=https%3A%2F%2Ffonts.googleapis.com%2Fcss%3Ffamily%3DUbuntu%2BMono;fontSize=16;" edge="1" parent="1" source="uqK8QcpsEyStqq74XiFP-41" target="uqK8QcpsEyStqq74XiFP-56">
          <mxGeometry relative="1" as="geometry">
            <Array as="points" />
          </mxGeometry>
        </mxCell>
        <mxCell id="uqK8QcpsEyStqq74XiFP-186" value="&quot;employs&quot;" style="curved=1;startArrow=none;endArrow=open;endSize=12;exitX=1;exitY=0.43;entryX=0.12;entryY=1;rounded=0;fontFamily=Ubuntu Mono;fontSource=https%3A%2F%2Ffonts.googleapis.com%2Fcss%3Ffamily%3DUbuntu%2BMono;fontSize=16;" edge="1" parent="1" source="uqK8QcpsEyStqq74XiFP-56" target="uqK8QcpsEyStqq74XiFP-28">
          <mxGeometry relative="1" as="geometry">
            <Array as="points">
              <mxPoint x="1295" y="1069" />
              <mxPoint x="2726" y="1069" />
            </Array>
          </mxGeometry>
        </mxCell>
        <mxCell id="uqK8QcpsEyStqq74XiFP-187" value="&quot;admits&quot;" style="curved=1;startArrow=none;endArrow=open;endSize=12;exitX=1;exitY=0.5;entryX=0.26;entryY=1;rounded=0;fontFamily=Ubuntu Mono;fontSource=https%3A%2F%2Ffonts.googleapis.com%2Fcss%3Ffamily%3DUbuntu%2BMono;fontSize=16;" edge="1" parent="1" source="uqK8QcpsEyStqq74XiFP-56" target="uqK8QcpsEyStqq74XiFP-15">
          <mxGeometry relative="1" as="geometry">
            <Array as="points">
              <mxPoint x="1295" y="1099" />
            </Array>
          </mxGeometry>
        </mxCell>
        <mxCell id="uqK8QcpsEyStqq74XiFP-188" value="&quot;receives&quot;" style="curved=1;startArrow=none;endArrow=open;endSize=12;exitX=1;exitY=0.25;entryX=0;entryY=0.3;rounded=0;fontFamily=Ubuntu Mono;fontSource=https%3A%2F%2Ffonts.googleapis.com%2Fcss%3Ffamily%3DUbuntu%2BMono;fontSize=16;" edge="1" parent="1" source="uqK8QcpsEyStqq74XiFP-131" target="uqK8QcpsEyStqq74XiFP-139">
          <mxGeometry relative="1" as="geometry">
            <Array as="points">
              <mxPoint x="2162" y="410" />
            </Array>
          </mxGeometry>
        </mxCell>
        <mxCell id="uqK8QcpsEyStqq74XiFP-189" value="&quot;from&quot;" style="curved=1;startArrow=none;endArrow=open;endSize=12;exitX=1;exitY=0.29;entryX=0.21;entryY=0;rounded=0;fontFamily=Ubuntu Mono;fontSource=https%3A%2F%2Ffonts.googleapis.com%2Fcss%3Ffamily%3DUbuntu%2BMono;fontSize=16;" edge="1" parent="1" source="uqK8QcpsEyStqq74XiFP-139" target="uqK8QcpsEyStqq74XiFP-28">
          <mxGeometry relative="1" as="geometry">
            <Array as="points">
              <mxPoint x="2726" y="410" />
            </Array>
          </mxGeometry>
        </mxCell>
        <mxCell id="uqK8QcpsEyStqq74XiFP-190" value="&quot;for&quot;" style="curved=1;startArrow=none;endArrow=open;endSize=12;exitX=0;exitY=0.87;entryX=1;entryY=0.96;rounded=0;fontFamily=Ubuntu Mono;fontSource=https%3A%2F%2Ffonts.googleapis.com%2Fcss%3Ffamily%3DUbuntu%2BMono;fontSize=16;" edge="1" parent="1" source="uqK8QcpsEyStqq74XiFP-139" target="uqK8QcpsEyStqq74XiFP-131">
          <mxGeometry relative="1" as="geometry">
            <Array as="points">
              <mxPoint x="2162" y="644" />
            </Array>
          </mxGeometry>
        </mxCell>
        <mxCell id="uqK8QcpsEyStqq74XiFP-191" value="&quot;has&quot;" style="curved=1;startArrow=none;endArrow=block;endSize=16;endFill=0;exitX=1;exitY=0.9;entryX=0;entryY=0.5;rounded=0;fontFamily=Ubuntu Mono;fontSource=https%3A%2F%2Ffonts.googleapis.com%2Fcss%3Ffamily%3DUbuntu%2BMono;fontSize=16;" edge="1" parent="1" source="uqK8QcpsEyStqq74XiFP-15" target="uqK8QcpsEyStqq74XiFP-151">
          <mxGeometry relative="1" as="geometry">
            <Array as="points">
              <mxPoint x="1754" y="835" />
            </Array>
          </mxGeometry>
        </mxCell>
        <mxCell id="uqK8QcpsEyStqq74XiFP-192" value="&quot;is processed by&quot;" style="curved=1;startArrow=none;endArrow=block;endSize=16;endFill=0;exitX=1;exitY=0.5;entryX=0;entryY=0.5;rounded=0;fontFamily=Ubuntu Mono;fontSource=https%3A%2F%2Ffonts.googleapis.com%2Fcss%3Ffamily%3DUbuntu%2BMono;fontSize=16;" edge="1" parent="1" source="uqK8QcpsEyStqq74XiFP-151" target="uqK8QcpsEyStqq74XiFP-165">
          <mxGeometry relative="1" as="geometry">
            <Array as="points" />
          </mxGeometry>
        </mxCell>
        <mxCell id="uqK8QcpsEyStqq74XiFP-193" value="&quot;includes&quot;" style="curved=1;startArrow=none;endArrow=block;endSize=16;endFill=0;exitX=1;exitY=0.5;entryX=0;entryY=0.5;rounded=0;fontFamily=Ubuntu Mono;fontSource=https%3A%2F%2Ffonts.googleapis.com%2Fcss%3Ffamily%3DUbuntu%2BMono;fontSize=16;" edge="1" parent="1" source="uqK8QcpsEyStqq74XiFP-69" target="uqK8QcpsEyStqq74XiFP-85">
          <mxGeometry relative="1" as="geometry">
            <Array as="points" />
          </mxGeometry>
        </mxCell>
        <mxCell id="uqK8QcpsEyStqq74XiFP-194" value="&quot;is composed of&quot;" style="curved=1;startArrow=none;endArrow=block;endSize=16;endFill=0;exitX=1;exitY=0.5;entryX=0;entryY=0.5;rounded=0;fontFamily=Ubuntu Mono;fontSource=https%3A%2F%2Ffonts.googleapis.com%2Fcss%3Ffamily%3DUbuntu%2BMono;fontSize=16;" edge="1" parent="1" source="uqK8QcpsEyStqq74XiFP-85" target="uqK8QcpsEyStqq74XiFP-96">
          <mxGeometry relative="1" as="geometry">
            <Array as="points" />
          </mxGeometry>
        </mxCell>
        <mxCell id="uqK8QcpsEyStqq74XiFP-195" value="&quot;contains&quot;" style="curved=1;startArrow=none;endArrow=block;endSize=16;endFill=0;exitX=1;exitY=0.5;entryX=0;entryY=0.5;rounded=0;fontFamily=Ubuntu Mono;fontSource=https%3A%2F%2Ffonts.googleapis.com%2Fcss%3Ffamily%3DUbuntu%2BMono;fontSize=16;" edge="1" parent="1" source="uqK8QcpsEyStqq74XiFP-96" target="uqK8QcpsEyStqq74XiFP-107">
          <mxGeometry relative="1" as="geometry">
            <Array as="points" />
          </mxGeometry>
        </mxCell>
        <mxCell id="uqK8QcpsEyStqq74XiFP-196" value="&quot;holds&quot;" style="curved=1;startArrow=none;endArrow=block;endSize=16;endFill=0;exitX=1;exitY=0.5;entryX=0;entryY=0.5;rounded=0;fontFamily=Ubuntu Mono;fontSource=https%3A%2F%2Ffonts.googleapis.com%2Fcss%3Ffamily%3DUbuntu%2BMono;fontSize=16;" edge="1" parent="1" source="uqK8QcpsEyStqq74XiFP-107" target="uqK8QcpsEyStqq74XiFP-118">
          <mxGeometry relative="1" as="geometry">
            <Array as="points" />
          </mxGeometry>
        </mxCell>
      </root>
    </mxGraphModel>
  </diagram>
</mxfile>
